<svg width="24" height="24" viewBox="0 0 24 24" fill="none" xmlns="http://www.w3.org/2000/svg">
<path d="M11 18H13V16H11V18ZM12 1.99997C6.48 1.99997 2 6.47997 2 12C2 17.52 6.48 22 12 22C17.52 22 22 17.52 22 12C22 6.47997 17.52 1.99997 12 1.99997ZM12 20C7.59 20 4 16.41 4 12C4 7.58997 7.59 3.99997 12 3.99997C16.41 3.99997 20 7.58997 20 12C20 16.41 16.41 20 12 20ZM12 5.99997C9.79 5.99997 8 7.78997 8 9.99997H10C10 8.89997 10.9 7.99997 12 7.99997C13.1 7.99997 14 8.89997 14 9.99997C14 12 11 11.75 11 15H13C13 12.75 16 12.5 16 9.99997C16 7.78997 14.21 5.99997 12 5.99997Z" fill="white"/>
</svg>
