<svg width="24" height="24" viewBox="0 0 24 24" fill="none" xmlns="http://www.w3.org/2000/svg">
<path d="M22 3.99994V3.49994C22 2.11994 20.88 0.999939 19.5 0.999939C18.12 0.999939 17 2.11994 17 3.49994V3.99994C16.45 3.99994 16 4.44994 16 4.99994V8.99994C16 9.54994 16.45 9.99994 17 9.99994H22C22.55 9.99994 23 9.54994 23 8.99994V4.99994C23 4.44994 22.55 3.99994 22 3.99994ZM21.2 3.99994H17.8V3.49994C17.8 2.55994 18.56 1.79994 19.5 1.79994C20.44 1.79994 21.2 2.55994 21.2 3.49994V3.99994ZM18.92 11.9999C18.96 12.3299 19 12.6599 19 12.9999C19 15.0799 18.2 16.9699 16.9 18.3899C16.64 17.5799 15.9 16.9999 15 16.9999H14V13.9999C14 13.4499 13.55 12.9999 13 12.9999H7V10.9999H9C9.55 10.9999 10 10.5499 10 9.99994V7.99994H12C13.1 7.99994 14 7.09994 14 5.99994V3.45994C13.05 3.15994 12.05 2.99994 11 2.99994C5.48 2.99994 1 7.47994 1 12.9999C1 18.5199 5.48 22.9999 11 22.9999C16.52 22.9999 21 18.5199 21 12.9999C21 12.6599 20.98 12.3299 20.95 11.9999H18.92ZM10 20.9299C6.05 20.4399 3 17.0799 3 12.9999C3 12.3799 3.08 11.7899 3.21 11.2099L8 15.9999V16.9999C8 18.0999 8.9 18.9999 10 18.9999V20.9299Z" fill="white"/>
</svg>
