<svg width="24" height="24" viewBox="0 0 24 24" fill="none" xmlns="http://www.w3.org/2000/svg">
<mask id="mask0" mask-type="alpha" maskUnits="userSpaceOnUse" x="2" y="4" width="11" height="16">
<path d="M2.625 4.5H12.1875V19.5268H2.625V4.5Z" fill="#C4C4C4"/>
</mask>
<g mask="url(#mask0)">
<path d="M4.36315 4.94196C5.32809 4.63259 6.38866 4.5 7.40576 4.5C9.10093 4.5 10.9265 4.85357 12.187 5.82589C13.4475 4.85357 15.2731 4.5 16.9683 4.5C18.6634 4.5 20.489 4.85357 21.7495 5.82589V18.7754C21.7495 18.9964 21.5322 19.2174 21.3149 19.2174C21.2279 19.2174 21.1845 19.1732 21.0975 19.1732C19.9239 18.5987 18.2288 18.2009 16.9683 18.2009C15.2731 18.2009 13.4475 18.5545 12.187 19.5268C11.0134 18.7754 8.8836 18.2009 7.40576 18.2009C5.97139 18.2009 4.49355 18.4661 3.2765 19.129C3.18957 19.1732 3.1461 19.1732 3.05917 19.1732C2.84184 19.1732 2.62451 18.9522 2.62451 18.7312V5.82589C3.1461 5.42812 3.71116 5.16295 4.36315 4.94196ZM4.36315 16.875C5.3194 16.5656 6.36258 16.433 7.40576 16.433C8.8836 16.433 11.0134 17.0076 12.187 17.7589V7.59375C11.0134 6.84241 8.8836 6.26786 7.40576 6.26786C6.36258 6.26786 5.3194 6.40045 4.36315 6.70982V16.875Z" fill="white"/>
<path d="M7.40448 9.80343C6.63948 9.80343 5.90056 9.88299 5.23118 10.0333V8.68968C5.91794 8.55709 6.65686 8.47754 7.40448 8.47754C8.88232 8.47754 10.2211 8.73388 11.3164 9.2112V10.6785C10.3341 10.1128 8.96925 9.80343 7.40448 9.80343Z" fill="white"/>
<path d="M11.3174 11.5626V13.0299C10.3351 12.4642 8.97022 12.1548 7.40545 12.1548C6.64045 12.1548 5.90153 12.2344 5.23216 12.3846V11.0411C5.91892 10.9085 6.65784 10.8289 7.40545 10.8289C8.88329 10.8289 10.222 11.0941 11.3174 11.5626Z" fill="white"/>
<path d="M7.40545 13.1891C8.88329 13.1891 10.222 13.4454 11.3174 13.9227V15.3901C10.3351 14.8244 8.97022 14.515 7.40545 14.515C6.64045 14.515 5.90153 14.5945 5.23216 14.7448V13.4012C5.91892 13.2598 6.65784 13.1891 7.40545 13.1891Z" fill="white"/>
</g>
<mask id="mask1" mask-type="alpha" maskUnits="userSpaceOnUse" x="12" y="4" width="10" height="16">
<path d="M21.7495 4.5H12.187V19.5268H21.7495V4.5Z" fill="#C4C4C4"/>
</mask>
<g mask="url(#mask1)">
<path d="M20.0104 4.94196C19.0454 4.63259 17.9849 4.5 16.9678 4.5C15.2726 4.5 13.447 4.85357 12.1865 5.82589C10.926 4.85357 9.10044 4.5 7.40527 4.5C5.7101 4.5 3.88453 4.85357 2.62402 5.82589V18.7754C2.62402 18.9964 2.84135 19.2174 3.05868 19.2174C3.14561 19.2174 3.18908 19.1732 3.27601 19.1732C4.44959 18.5987 6.14476 18.2009 7.40527 18.2009C9.10044 18.2009 10.926 18.5545 12.1865 19.5268C13.3601 18.7754 15.4899 18.2009 16.9678 18.2009C18.4021 18.2009 19.88 18.4661 21.097 19.129C21.184 19.1732 21.2274 19.1732 21.3144 19.1732C21.5317 19.1732 21.749 18.9522 21.749 18.7312V5.82589C21.2274 5.42812 20.6624 5.16295 20.0104 4.94196ZM20.0104 16.875C19.0541 16.5656 18.011 16.433 16.9678 16.433C15.4899 16.433 13.3601 17.0076 12.1865 17.7589V7.59375C13.3601 6.84241 15.4899 6.26786 16.9678 6.26786C18.011 6.26786 19.0541 6.40045 20.0104 6.70982V16.875Z" fill="white"/>
<path d="M16.9681 9.80343C17.7331 9.80343 18.472 9.88299 19.1414 10.0333V8.68968C18.4546 8.55709 17.7157 8.47754 16.9681 8.47754C15.4902 8.47754 14.1515 8.73388 13.0562 9.2112V10.6785C14.0385 10.1128 15.4033 9.80343 16.9681 9.80343Z" fill="white"/>
<path d="M13.0552 11.5626V13.0299C14.0375 12.4642 15.4023 12.1548 16.9671 12.1548C17.7321 12.1548 18.471 12.2344 19.1404 12.3846V11.0411C18.4536 10.9085 17.7147 10.8289 16.9671 10.8289C15.4893 10.8289 14.1505 11.0941 13.0552 11.5626Z" fill="white"/>
<path d="M16.9671 13.1891C15.4893 13.1891 14.1505 13.4454 13.0552 13.9227V15.3901C14.0375 14.8244 15.4023 14.515 16.9671 14.515C17.7321 14.515 18.471 14.5945 19.1404 14.7448V13.4012C18.4536 13.2598 17.7147 13.1891 16.9671 13.1891Z" fill="white"/>
</g>
</svg>
