<svg width="24" height="24" viewBox="0 0 24 24" fill="none" xmlns="http://www.w3.org/2000/svg">
<path d="M12 5.99994C13.1046 5.99994 14 5.10451 14 3.99994C14 2.89537 13.1046 1.99994 12 1.99994C10.8954 1.99994 10 2.89537 10 3.99994C10 5.10451 10.8954 5.99994 12 5.99994Z" fill="white"/>
<path d="M15.89 8.10994C15.5 7.71994 14.83 6.99994 13.53 6.99994C13.32 6.99994 12.11 6.99994 10.99 6.99994C8.24 6.98994 6 4.74994 6 1.99994H4C4 5.15994 6.11 7.83994 9 8.70994V21.9999H11V15.9999H13V21.9999H15V10.0499L18.95 13.9999L20.36 12.5899L15.89 8.10994Z" fill="white"/>
</svg>
