<svg width="24" height="24" viewBox="0 0 24 24" fill="none" xmlns="http://www.w3.org/2000/svg">
<path d="M8.84665 4.1886L9.1855 4.39202L9.52452 4.1886L9.62622 4.01924L9.72808 4.05298V3.91737L9.82963 3.88362L9.69418 3.6802H9.55842L9.52468 3.57848L9.42297 3.7141L9.49078 3.88362L9.38923 3.64629L9.35533 3.748L9.28753 3.71426V3.91752L9.25363 3.748H9.21972L9.11802 3.71426L8.91461 3.78207L9.05022 3.98549L8.91461 3.91768L8.88071 3.74816L8.81291 3.81597L8.84681 3.84988H8.81291V3.81597V3.68036L8.5756 3.54474L8.65916 3.98995L8.54186 4.0194L8.6095 3.95159L8.54186 3.98549L8.6095 3.84988L8.54186 3.71426L8.30455 3.88378L8.44015 3.95159H8.37235V4.0872L8.4061 4.10981V4.18892L8.37235 4.0872L8.33845 4.15501L8.23675 4.0872V4.22282H8.16895L8.81291 4.29063L8.84665 4.1886ZM8.64324 4.1886L8.66823 4.03913L8.67714 4.08689L8.84649 4.18844L8.67714 4.12079L8.64324 4.1886Z" fill="white"/>
<path d="M15.4893 6.86665L15.3201 6.83274V6.69728L15.4216 6.66322L15.3877 6.56167L15.5572 6.42605L15.4554 6.35808V6.4598H15.3201L15.286 6.32418L15.3201 6.25653L15.1502 6.29028L15.2182 6.39215L14.981 6.4598V6.62932L15.0149 6.76493L14.9131 6.90055L15.0149 6.83274L15.2521 6.96836H15.5572L15.5233 6.79884L15.4893 6.86665Z" fill="white"/>
<path d="M15.6933 8.66335L15.7273 8.56164L15.6258 8.35822V8.45993H15.5239L15.6258 8.59554L15.6933 8.66335Z" fill="white"/>
<path d="M14.4743 4.18854L14.3045 4.39212L14.1013 4.42603L14.0674 4.52774L14.2706 4.45977L14.5082 4.25651L14.4743 4.18854Z" fill="white"/>
<path d="M14.8125 6.4598L14.88 6.32418L14.7446 6.25653L14.6768 6.42605L14.7446 6.4598V6.39215L14.8125 6.4598Z" fill="white"/>
<path d="M15.3547 8.42578L15.3208 8.52765H15.4223L15.4561 8.45969L15.3547 8.42578Z" fill="white"/>
<path d="M10.9144 3.375L10.7788 3.4089L10.9144 3.78169L10.9822 3.57842L10.9144 3.375Z" fill="white"/>
<path d="M14.6426 5.95129L14.7104 6.15456V6.05301L14.7783 6.01894L14.6426 5.95129Z" fill="white"/>
<path d="M15.1167 8.32419L15.083 8.4259H15.1846L15.2185 8.29028L15.1167 8.32419Z" fill="white"/>
<path d="M11.7271 4.05286L11.7611 4.12066L11.8627 4.05286H11.7271Z" fill="white"/>
<path d="M15.4561 8.39215L15.5246 8.35809L15.4903 8.29028L15.4561 8.39215Z" fill="white"/>
<path d="M15.2188 8.52778L15.2866 8.56153L15.3206 8.49371L15.2188 8.52778Z" fill="white"/>
<path d="M14.541 4.1549L14.6093 4.0871H14.541V4.1549Z" fill="white"/>
<path d="M10.9811 4.0871L10.8457 4.121L10.9472 4.1549L10.9811 4.0871Z" fill="white"/>
<path d="M11.7617 3.95129V3.9852L11.8972 3.95129L11.8633 3.88348L11.7617 3.95129Z" fill="white"/>
<path d="M13.3203 4.52747L13.3883 4.59512L13.4219 4.56137L13.3203 4.52747Z" fill="white"/>
<path d="M15.0488 6.35803L15.1171 6.39209V6.29022L15.0488 6.32413V6.35803Z" fill="white"/>
<path d="M15.0488 3.84947L15.286 3.64604L15.3539 3.40887L15.0488 3.84947Z" fill="white"/>
<path d="M10.2682 3.51077V3.64465L10.0998 3.61442L10.13 3.6792L10.0653 3.7483L10.2337 3.71375L10.2682 3.78285L10.2337 3.8174L10.3675 3.84763L10.4021 3.95128L10.5403 3.88218L10.8426 3.84763V3.91673H10.9116L10.8426 3.95128L10.9462 3.98583H10.8771L10.9462 4.02037L10.8771 4.05492H11.0455H11.0801L10.9116 4.22335L11.0455 4.32268L10.9807 4.35723L10.9462 4.56021L11.1189 4.62931L10.8814 4.56021L10.7778 4.62931L10.7432 4.83228L10.6785 4.66385L10.5748 4.72863L10.5403 4.62931L10.3719 4.79773L10.2034 4.6984L9.72844 4.76318L9.59025 4.66385L9.56003 4.49111L9.49093 4.6984L9.21888 4.62931L9.28797 4.86683L9.11524 4.83228L9.05047 4.90138L9.21888 5.03526L9.08501 5.00071L9.14547 5.10868L9.08501 5.16914L9.01592 5.03526V5.06981L8.94683 5.10436L8.98137 4.93161L8.77842 4.90138L8.81296 5.13891H8.74387L8.94683 5.23824H8.84751V5.30733L8.67478 5.13891L8.57546 5.16914L8.61 5.23824L8.54091 5.16914V5.40666L8.3034 5.47576V5.71329L8.50636 5.95081L8.43727 5.91627L8.16954 6.11924L8.0659 6.08469V6.01991L7.96658 6.08469L7.93203 6.39132L7.99681 6.35677L7.86294 6.46042L7.89748 6.62884L7.79385 6.69794L7.72907 6.62884L7.79385 6.79727L7.72907 6.72817L7.65998 6.86637L7.62543 6.76272L7.49157 7.00025V7.1039L7.59089 7.20323L7.65998 7.13845V7.23777L7.79385 7.20323L7.82839 7.27232L7.96658 7.20323L7.93203 7.27232L7.7593 7.37597H7.86294V7.44075H7.82839L7.84998 7.48826L7.87589 7.50121L7.96658 7.44075L7.93203 7.5444L8.16954 7.41052V7.50985H8.03135L8.10044 7.57895L7.99681 7.5444H7.93203H7.79385L7.86294 7.67828L7.79385 7.6135L7.82839 7.85102L7.72907 7.88126L7.62543 7.64373L7.52611 7.6135L7.55634 7.78193L7.42247 7.57895L7.45702 7.64373H7.38793H7.35338L7.42247 7.74738L7.35338 7.81648L7.45702 7.85102H7.35338L7.31883 7.9849V7.88126L7.25406 8.01945L7.31883 7.85102L7.28861 7.81648L7.21951 7.74738V7.6135L7.15042 7.71283V7.57895H7.12451C7.13965 7.59865 7.14731 7.62316 7.1461 7.64805V20.7725H16.4175V9.29778C16.4169 9.27365 16.4248 9.25009 16.4398 9.23117C16.4548 9.21225 16.4759 9.19915 16.4995 9.19413L16.4045 9.06889L16.0634 8.96956L15.6229 8.66293L15.5236 8.69748L15.5581 8.76658L15.3854 8.69748L15.2861 8.73203V8.59383L14.9104 8.42541L14.7765 8.15333L14.2324 7.81648L14.2022 7.85102V7.78193L14.0985 7.81648L13.9301 7.64805L13.861 7.41052L14.064 7.34142L14.2324 6.93547L14.4354 6.83182L14.4699 6.62884L14.6426 6.25744L14.5045 6.35677L14.4354 6.32222L14.4051 6.01991L14.4699 6.05446L14.539 5.98536L14.4354 5.95081L14.4699 5.85149L14.5736 5.78239L14.6081 5.88172L14.7074 5.67874L14.742 5.85149L14.7765 5.67874L14.8758 5.71329L14.9104 5.61396L14.9795 5.78239L14.9104 5.88172L15.0486 5.81694L15.1479 5.61396L15.0486 5.51031L15.2515 5.54486L15.0486 5.30733L15.1133 5.34188L15.1479 5.27279L15.217 5.37643L15.1824 5.23824H15.2861L15.3508 5.06981L15.3206 4.96616H15.3854V5.06981L15.5884 4.83228L15.3854 4.62931L15.2861 4.6984L15.3508 4.76318H15.2515L15.1133 4.46088H15.0486L15.1479 4.32268L14.742 4.62931L14.9795 4.6984L14.8758 4.90138L14.7765 4.97048L14.6426 4.93593L14.5736 5.00071V4.90138H14.5045L14.6081 4.73295L14.5045 4.76318L14.4699 4.6984L14.6081 4.52566L14.336 4.66385L14.3015 4.76318L14.1979 4.6984L14.4699 4.39178L14.0985 4.59476L14.064 4.52566L13.8956 4.56021L13.7272 4.66385L13.861 4.73295L13.6581 4.6984L13.7272 4.79773L13.3169 4.62931L13.2176 4.39178L13.0794 4.56021L12.6735 4.46088L12.5742 4.66385L12.639 4.49543L12.5742 4.35723L12.5051 4.39178L12.4706 4.29245L12.3367 4.39178L12.233 4.29245L12.3367 4.1888L12.1985 4.15425L11.8962 4.32268L11.9308 4.1888L11.8617 4.2579L11.7926 4.15425L11.6933 4.22335L11.7235 4.1197L11.5205 4.15425L11.283 3.7483H11.2182L11.2485 3.84763L11.1837 3.8174L11.0153 3.95128L10.7778 3.61442L10.7087 3.71375L10.6741 3.51077L10.5748 3.57987L10.6051 3.6792L10.4366 3.51077L10.4712 3.71375L10.5403 3.7483L10.4712 3.84763L10.4021 3.61442L10.2682 3.51077Z" fill="white"/>
</svg>
