<svg width="24" height="24" viewBox="0 0 24 24" fill="none" xmlns="http://www.w3.org/2000/svg">
<path d="M18.4616 4.87504L18.3651 4.95232L18.3499 4.95746L18.233 5.06566C18.2139 5.0854 18.1889 5.0981 18.1619 5.10172L17.9637 5.11717H17.9587L17.8875 5.12748L17.8825 5.15324L17.9028 5.22537L17.9333 5.22023C17.9572 5.21783 17.9813 5.22268 18.0026 5.23414C18.0238 5.24561 18.0412 5.26319 18.0526 5.28467C18.064 5.30614 18.0689 5.33056 18.0666 5.35485C18.0644 5.37914 18.0551 5.40221 18.04 5.42116L17.9434 5.55512L17.9231 5.6324C17.9183 5.65076 17.9094 5.66775 17.897 5.68205C17.8847 5.69634 17.8693 5.70756 17.852 5.71484L17.6538 5.80244C17.6251 5.81614 17.5924 5.81798 17.5624 5.80758L17.4201 5.75091C17.4022 5.74278 17.3865 5.73041 17.3744 5.71484L17.3541 5.73545L17.2474 5.86941L17.2372 5.87971L17.2321 5.88486L17.1915 5.97245C17.1814 5.99369 17.1655 6.01157 17.1458 6.02397L17.0187 6.1064C17.0037 6.11605 16.9869 6.12226 16.9693 6.1246C16.9517 6.12695 16.9338 6.12536 16.9168 6.11997C16.8999 6.11457 16.8843 6.10549 16.8712 6.09336C16.8581 6.08124 16.8478 6.06635 16.8409 6.04975L16.7545 5.84881C16.7476 5.83769 16.7425 5.82551 16.7393 5.81274L16.7291 5.70455L16.6783 5.61181L16.6682 5.6015L16.6021 5.50876C16.6004 5.5088 16.5987 5.5088 16.597 5.50876L16.5005 5.37995L16.3633 5.34904L16.0585 5.3439C16.0376 5.34583 16.0166 5.34228 15.9975 5.33359L15.9061 5.28207L15.8908 5.27177L15.7892 5.23055L15.6825 5.246C15.6573 5.24828 15.6321 5.24257 15.6102 5.22964C15.5884 5.21672 15.571 5.19723 15.5606 5.17387L15.5555 5.15326H15.4996L15.4895 5.16356L15.2354 5.25115C15.2159 5.25809 15.1949 5.25986 15.1745 5.25629L14.9255 5.21507C14.9221 5.21352 14.9187 5.2118 14.9154 5.20993L14.6816 5.1378H14.6766L14.5546 5.31298C14.5432 5.33098 14.5274 5.34567 14.5087 5.3556C14.49 5.36554 14.469 5.37038 14.4479 5.36965L14.3616 5.36451L14.3565 5.44694C14.3554 5.47713 14.3434 5.50585 14.3228 5.52768C14.3022 5.54951 14.2744 5.56295 14.2447 5.56544H14.2295C14.228 5.58557 14.2216 5.60501 14.211 5.62207C14.2004 5.63914 14.1858 5.6533 14.1685 5.66334L14.0009 5.75092C13.9837 5.76055 13.9646 5.76585 13.945 5.76637L4.12402 5.75607V14.0924L4.20023 14.0821C4.22443 14.0782 4.24921 14.0818 4.27136 14.0924L4.5508 14.2212L4.68798 14.1285C4.70075 14.1182 4.71542 14.1106 4.73113 14.1062C4.74684 14.1018 4.76326 14.1006 4.77943 14.1027L5.09443 14.1645H5.10459L5.49581 14.2109C5.51808 14.2136 5.53918 14.2225 5.55677 14.2367L5.88194 14.5149C5.90142 14.5308 5.9156 14.5524 5.92258 14.5767L6.00387 14.9168L6.00895 14.9219C6.02049 14.9044 6.03622 14.8903 6.05467 14.8807L6.25282 14.7828C6.27872 14.767 6.30951 14.7614 6.33919 14.7673L6.51701 14.8086L6.82186 14.8343C6.8339 14.8342 6.84588 14.836 6.85742 14.8395L7.05049 14.9167C7.06837 14.9245 7.08417 14.9365 7.09654 14.9518C7.10892 14.967 7.11751 14.985 7.12161 15.0043L7.22831 15.5041L7.44678 15.8184L7.5992 15.8235C7.61705 15.8248 7.63439 15.8301 7.65001 15.839L7.94977 15.9678C7.96123 15.9746 7.97152 15.9834 7.98021 15.9936L8.35618 16.3285C8.37296 16.3437 8.38527 16.3633 8.39174 16.3851L8.44763 16.5861L8.65086 16.7355L8.65593 16.7406L8.90488 16.8437L8.98617 16.8334L8.96585 16.6737C8.96154 16.6429 8.96879 16.6116 8.98617 16.5861L9.07763 16.4624C9.08704 16.4487 9.0991 16.4371 9.11307 16.4282C9.12704 16.4194 9.14264 16.4135 9.15892 16.4109L9.29101 16.3903C9.3174 16.3869 9.34416 16.3923 9.36722 16.4057L9.48916 16.4727L9.794 16.4263C9.81819 16.4225 9.84298 16.426 9.86513 16.4366L10.0988 16.5552L10.236 16.5294C10.2607 16.5271 10.2855 16.5325 10.3071 16.5448L10.5053 16.6427H10.5104L10.6628 16.6685L10.739 16.5912C10.7517 16.5775 10.7674 16.5669 10.7847 16.5603L10.9473 16.5036C10.9643 16.4962 10.9828 16.4928 11.0012 16.4937C11.0197 16.4946 11.0378 16.4998 11.054 16.5088L11.2369 16.6118L11.2471 16.6221L11.5519 16.6891L11.7856 16.6221H11.7907L11.9888 16.5551C11.9971 16.5525 12.0056 16.5508 12.0142 16.55L12.1209 16.5397L12.126 16.5294L12.253 16.483C12.2547 16.4812 12.2564 16.4795 12.2581 16.4779L12.4308 16.416C12.4615 16.4072 12.4943 16.4109 12.5223 16.4263L12.7916 16.5603C12.8146 16.572 12.8333 16.5907 12.8452 16.6138C12.8571 16.637 12.8614 16.6633 12.8576 16.6891L12.8271 16.8797L12.9033 17.0601L12.9135 17.0755L13.0354 17.2558C13.0437 17.2651 13.0506 17.2755 13.0558 17.2868L13.1218 17.4929C13.1271 17.5095 13.1288 17.527 13.1269 17.5444L13.1066 17.7196L14.5393 18.4357L14.834 18.4615C14.8575 18.4617 14.8804 18.4689 14.9 18.4821L15.1388 18.6624C15.1539 18.672 15.1667 18.6848 15.1763 18.6999C15.186 18.7151 15.1923 18.7322 15.1947 18.75L15.2862 18.7036L15.2455 18.379L15.3268 18.3378H15.4081L15.3268 18.1369L15.1642 18.0957L15.2455 17.9359L15.1642 17.7299L15.2455 17.7711L15.3268 17.4877L15.4843 16.8437L15.4437 16.4366L15.525 16.1945H15.4437L15.6469 16.0348L15.525 15.8699L15.6875 15.9111L16.0025 15.1434L16.282 15.061L16.1651 14.8188L16.282 14.7776V14.9425L16.3633 14.9013L16.282 14.6591L16.2058 14.7003L16.2413 14.6179L16.0838 14.5767L16.3633 14.4582L16.4446 14.1748L16.3633 14.0512L16.4801 14.0099V13.7266L16.8002 13.4071L16.6834 13.3659L16.8815 13.3247L16.6427 13.2423L16.9221 13.201L16.9628 13.0001L16.8409 13.0825L16.7596 13.0001L16.8815 13.0413L16.8409 12.9177L16.9628 13.0001L17.0034 12.6755V12.6343L16.9221 12.7167V12.5982L16.8815 12.6343L16.8409 12.5158L16.9628 12.5982L17.0034 12.3921V12.557L17.1609 12.4746L17.2016 12.2736L17.1203 12.1912H17.2778L17.3997 11.8666L17.2778 12.0315L17.2422 11.8666H17.3591V11.7069L17.3997 11.8666L17.5572 11.5832L17.5217 11.5059H17.5979V11.6244L18.0805 11.3411L17.918 11.2999L17.7605 11.4235L17.7198 11.3823L17.8011 11.2999L17.7605 11.2226L17.918 11.2999L18.0399 11.2226L18.0805 11.2999L18.238 11.0577L18.5175 10.898L18.5581 10.5734L18.4362 10.5322V10.6146L18.2787 10.5322H18.4362H18.4768L18.5175 10.2488L18.7969 10.0066L19.1526 8.83708L19.117 8.02818L19.3964 7.29656L19.432 7.17806L19.5539 6.48766L19.432 6.41038L19.5539 6.4516L19.5133 6.28672L19.8334 5.67876H19.7521L19.8334 5.64269L19.874 5.3181L19.7521 5.15323L19.7724 4.90592C19.7656 4.9065 19.7588 4.9065 19.7521 4.90592L19.6149 4.92137C19.6065 4.92227 19.5979 4.92227 19.5895 4.92137L19.4676 4.91107L19.4168 4.95228C19.4077 4.96067 19.3974 4.96762 19.3863 4.97289L19.2897 5.01926C19.2782 5.02275 19.2662 5.02448 19.2542 5.02441L19.1475 5.03471C19.1337 5.03533 19.12 5.03359 19.1068 5.02957L18.9697 4.9935L18.8122 5.06563C18.7896 5.07431 18.765 5.07601 18.7415 5.07051C18.718 5.06501 18.6966 5.05255 18.6801 5.03472L18.5429 4.90076L18.4616 4.875L18.4616 4.87504Z" fill="white"/>
</svg>
