<svg width="24" height="24" viewBox="0 0 24 24" fill="none" xmlns="http://www.w3.org/2000/svg">
<path d="M2.39696 5.62354L2.25124 5.64175V14.7864C2.25314 14.8207 2.2469 14.8551 2.23302 14.8866C2.23008 14.8897 2.22705 14.8927 2.22393 14.8956C2.21822 14.9021 2.21214 14.9081 2.20571 14.9139C2.20034 14.9234 2.19425 14.9325 2.1875 14.9412L2.96163 15.5696V15.9249L3.1711 15.8611L3.38968 15.9977L3.81772 15.4968L4.67382 15.9249L5.24758 15.7882L7.88873 17.2182L8.9634 16.1435L9.81949 15.5696H10.3204L10.4661 15.1416L9.96521 15.2873L9.68288 15.0687H10.0381L10.967 14.3582L11.3951 15.2144L10.967 15.7882L10.3204 15.6425L10.967 16.2163L11.3951 15.9249L11.6136 15.9977L11.6774 15.433H12.1783L12.324 15.8611L12.0417 15.9249L11.9688 16.3621L12.4697 16.7173L12.9706 16.6444L13.0344 16.7901L12.8249 16.7173L13.1801 17.3548L13.4716 17.1454L13.7539 17.2911L13.681 17.0725L13.9725 17.6463L14.3276 18.0015L14.4643 17.0725L14.0362 17.3548L13.8996 16.7901H14.61L15.457 16.4987L16.8322 15.0687L17.7611 14.4949L16.6136 14.9958L17.2602 14.5677L17.2329 14.5495L17.0417 14.3582L17.5426 14.4949L18.1163 14.2854L18.0435 14.4311L21.1855 14.1397L21.7502 13.6387C21.744 13.636 21.7379 13.6329 21.732 13.6296L21.3677 13.3564L20.8394 13.3108C20.8143 13.309 20.7896 13.3028 20.7666 13.2926L18.0162 11.9264C17.9766 11.9063 17.944 11.8746 17.9229 11.8355C17.9017 11.7965 17.893 11.7519 17.8978 11.7078L17.9433 11.2979L17.8704 11.052L17.6336 10.7059C17.6227 10.6919 17.6136 10.6766 17.6063 10.6603L17.4242 10.2505C17.4085 10.2098 17.4054 10.1654 17.4151 10.123L17.4515 9.88614L17.1874 9.75863L16.987 9.8315H16.978L16.7503 9.92258C16.7334 9.93419 16.715 9.94339 16.6956 9.94989L16.4862 9.9772L16.1219 10.0956L15.6301 10.2322C15.5942 10.2415 15.5566 10.2415 15.5208 10.2322L14.865 10.0865C14.8419 10.078 14.8203 10.0657 14.8013 10.0501L14.5463 9.90433L14.3915 9.95898L14.2002 10.1594C14.1731 10.1828 14.1406 10.1992 14.1057 10.2071C14.0708 10.2151 14.0344 10.2143 13.9998 10.2049L13.6173 10.1411C13.5984 10.1375 13.58 10.1314 13.5627 10.1229L13.2166 9.96809L12.9616 9.9954C12.9153 10.0042 12.8674 9.99783 12.825 9.97718L12.4152 9.76769L11.8596 9.84967C11.8133 9.85849 11.7654 9.8521 11.723 9.83145L11.5226 9.71304L11.4225 9.72214L11.3678 9.7859L11.4316 10.1958C11.4368 10.2245 11.4361 10.254 11.4297 10.2825C11.4234 10.311 11.4113 10.338 11.3943 10.3617C11.3774 10.3855 11.3558 10.4056 11.3309 10.4209C11.306 10.4362 11.2783 10.4464 11.2494 10.4508L10.8123 10.5146C10.7727 10.5225 10.7317 10.5194 10.6939 10.5055L10.1565 10.2595C10.1407 10.2552 10.1254 10.2491 10.1109 10.2414L9.68287 9.9226C9.64795 9.89449 9.62252 9.85634 9.61001 9.8133L9.50072 9.43986L8.88142 8.89337L8.87232 8.88428L8.43517 8.71122L8.0982 8.70213C8.06191 8.70186 8.02625 8.69256 7.99445 8.67507C7.96265 8.65758 7.93571 8.63244 7.91605 8.60194L7.43336 7.91882C7.41888 7.89358 7.40959 7.8657 7.40602 7.83682L7.21477 7.02619L7.0144 6.94422L6.47707 6.90779C6.46797 6.90836 6.45885 6.90836 6.44976 6.90779L6.19475 6.84403L6.03082 6.93511L6.02172 7.12638C6.02008 7.16892 6.00605 7.21004 5.98136 7.24472C5.95668 7.27939 5.92241 7.30611 5.88276 7.32158C5.84311 7.33706 5.79981 7.34062 5.75816 7.33183C5.71652 7.32304 5.67834 7.30229 5.64832 7.27212L5.28403 6.94422C5.25394 6.91735 5.23187 6.88267 5.22027 6.84403L5.07456 6.24289L4.58276 5.83302L3.94524 5.76016C3.94221 5.76022 3.93918 5.76022 3.93615 5.76016L3.43524 5.67818L3.16202 5.86946C3.13042 5.89148 3.09356 5.90476 3.05518 5.90796C3.0168 5.91116 2.97825 5.90416 2.94344 5.88767L2.397 5.62354H2.39696Z" fill="white"/>
<path d="M15.4596 16.5053L15.3262 16.6452L15.469 16.5026L15.4596 16.5053Z" fill="white"/>
</svg>
