<svg width="24" height="24" viewBox="0 0 24 24" fill="none" xmlns="http://www.w3.org/2000/svg">
<path d="M7.2 5.725C7.2 7.0175 6.12 8.075 4.8 8.075C3.48 8.075 2.4 7.0175 2.4 5.725C2.4 4.4325 3.48 3.375 4.8 3.375C6.12 3.375 7.2 4.4325 7.2 5.725Z" fill="white"/>
<path d="M8.136 9.9315C9.024 10.3075 9.6 11.1535 9.6 12.1053V12.775H0V12.1053C0 11.1535 0.576 10.3075 1.464 9.9315C2.484 9.49675 3.612 9.25 4.8 9.25C5.988 9.25 7.116 9.49675 8.136 9.9315Z" fill="white"/>
<path d="M21.6 5.725C21.6 7.0175 20.52 8.075 19.2 8.075C17.88 8.075 16.8 7.0175 16.8 5.725C16.8 4.4325 17.88 3.375 19.2 3.375C20.52 3.375 21.6 4.4325 21.6 5.725Z" fill="white"/>
<path d="M22.536 9.9315C23.424 10.3075 24 11.1535 24 12.1053V12.775H14.4V12.1053C14.4 11.1535 14.976 10.3075 15.864 9.9315C16.884 9.49675 18.012 9.25 19.2 9.25C20.388 9.25 21.516 9.49675 22.536 9.9315Z" fill="white"/>
<path d="M20.4 18.6383V21L24 17.475L20.4 13.95V16.3L3.6 16.3118V13.95L0 17.475L3.6 21V18.65L20.4 18.6383Z" fill="white"/>
</svg>
