<svg width="24" height="24" viewBox="0 0 24 24" fill="none" xmlns="http://www.w3.org/2000/svg">
<path d="M19 4H18V2H16V4H8V2H6V4H5C3.89 4 3.01 4.9 3.01 6L3 20C3 21.1 3.89 22 5 22H19C20.1 22 21 21.1 21 20V6C21 4.9 20.1 4 19 4ZM19 20H5V9H19V20Z" fill="white"/>
<path d="M9.44922 14.961H14.467L12.2748 17.2106C12.0996 17.3904 12.0996 17.6854 12.2748 17.8652C12.45 18.0449 12.733 18.0449 12.9082 17.8652L15.8686 14.8273C16.0438 14.6475 16.0438 14.3571 15.8686 14.1773L12.9127 11.1348C12.8288 11.0485 12.7148 11 12.596 11C12.4772 11 12.3632 11.0485 12.2793 11.1348C12.1041 11.3146 12.1041 11.605 12.2793 11.7848L14.467 14.039H9.44922C9.20215 14.039 9 14.2465 9 14.5C9 14.7535 9.20215 14.961 9.44922 14.961Z" fill="white"/>
</svg>
