<svg width="24" height="24" viewBox="0 0 24 24" fill="none" xmlns="http://www.w3.org/2000/svg">
<path d="M20 11.9999C20 10.8999 20.9 9.99994 22 9.99994V5.99994C22 4.89994 21.1 3.99994 20 3.99994H4C2.9 3.99994 2.01 4.89994 2.01 5.99994V9.99994C3.11 9.99994 4 10.8999 4 11.9999C4 13.0999 3.11 13.9999 2 13.9999V17.9999C2 19.0999 2.9 19.9999 4 19.9999H20C21.1 19.9999 22 19.0999 22 17.9999V13.9999C20.9 13.9999 20 13.0999 20 11.9999ZM15.58 16.7999L12 14.4999L8.42 16.7999L9.5 12.6799L6.21 9.98994L10.45 9.73994L12 5.79994L13.54 9.74994L17.78 9.99994L14.49 12.6899L15.58 16.7999Z" fill="white"/>
</svg>
