<svg width="24" height="24" viewBox="0 0 24 24" fill="none" xmlns="http://www.w3.org/2000/svg">
<path d="M8.84665 4.18854L9.1855 4.39196L9.52452 4.18854L9.62621 4.01918L9.72808 4.05292V3.91731L9.82963 3.88356L9.69417 3.68014H9.55842L9.52468 3.57842L9.42297 3.71404L9.49078 3.88356L9.38923 3.64623L9.35533 3.74794L9.28753 3.7142V3.91746L9.25362 3.74794H9.21972L9.11802 3.7142L8.91461 3.78201L9.05021 3.98543L8.91461 3.91762L8.8807 3.7481L8.81291 3.81591L8.84681 3.84982H8.81291V3.81591V3.6803L8.57559 3.54468L8.65915 3.98989L8.54185 4.01934L8.6095 3.95153L8.54185 3.98543L8.6095 3.84982L8.54185 3.7142L8.30455 3.88372L8.44015 3.95153H8.37234V4.08714L8.4061 4.10975V4.18886L8.37234 4.08714L8.33845 4.15495L8.23674 4.08714V4.22276H8.16895L8.81291 4.29057L8.84665 4.18854ZM8.64324 4.18854L8.66823 4.03907L8.67714 4.08683L8.84649 4.18838L8.67714 4.12073L8.64324 4.18854Z" fill="#0000FF"/>
<path d="M15.4893 6.86671L15.3201 6.8328V6.69734L15.4216 6.66328L15.3877 6.56173L15.5572 6.42611L15.4554 6.35814V6.45986H15.3201L15.286 6.32424L15.3201 6.25659L15.1502 6.29034L15.2182 6.39221L14.981 6.45986V6.62938L15.0149 6.76499L14.9131 6.90061L15.0149 6.8328L15.2521 6.96842H15.5572L15.5233 6.7989L15.4893 6.86671Z" fill="#0000FF"/>
<path d="M15.6933 8.66328L15.7273 8.56157L15.6258 8.35815V8.45986H15.5239L15.6258 8.59547L15.6933 8.66328Z" fill="#0000FF"/>
<path d="M14.4743 4.18848L14.3045 4.39206L14.1013 4.42597L14.0674 4.52768L14.2706 4.45971L14.5082 4.25645L14.4743 4.18848Z" fill="#0000FF"/>
<path d="M14.8125 6.45986L14.88 6.32424L14.7446 6.25659L14.6768 6.42611L14.7446 6.45986V6.39221L14.8125 6.45986Z" fill="#0000FF"/>
<path d="M15.3547 8.42578L15.3208 8.52765H15.4223L15.4561 8.45969L15.3547 8.42578Z" fill="#0000FF"/>
<path d="M10.9144 3.375L10.7788 3.4089L10.9144 3.78169L10.9822 3.57842L10.9144 3.375Z" fill="#0000FF"/>
<path d="M14.6426 5.95117L14.7104 6.15444V6.05289L14.7783 6.01882L14.6426 5.95117Z" fill="#0000FF"/>
<path d="M15.1167 8.32419L15.083 8.4259H15.1846L15.2185 8.29028L15.1167 8.32419Z" fill="#0000FF"/>
<path d="M11.7271 4.05298L11.7611 4.12078L11.8627 4.05298H11.7271Z" fill="#0000FF"/>
<path d="M15.4561 8.39215L15.5246 8.35809L15.4903 8.29028L15.4561 8.39215Z" fill="#0000FF"/>
<path d="M15.2188 8.52772L15.2866 8.56147L15.3205 8.49365L15.2188 8.52772Z" fill="#0000FF"/>
<path d="M14.541 4.15496L14.6093 4.08716H14.541V4.15496Z" fill="#0000FF"/>
<path d="M10.9811 4.08716L10.8457 4.12106L10.9472 4.15496L10.9811 4.08716Z" fill="#0000FF"/>
<path d="M11.7617 3.95135V3.98526L11.8972 3.95135L11.8633 3.88354L11.7617 3.95135Z" fill="#0000FF"/>
<path d="M13.3203 4.52759L13.3883 4.59524L13.4219 4.56149L13.3203 4.52759Z" fill="#0000FF"/>
<path d="M15.0488 6.35809L15.1171 6.39215V6.29028L15.0488 6.32419V6.35809Z" fill="#0000FF"/>
<path d="M15.0488 3.84954L15.286 3.64611L15.3539 3.40894L15.0488 3.84954Z" fill="#0000FF"/>
<path d="M10.2682 3.51074V3.64462L10.0998 3.61439L10.13 3.67917L10.0653 3.74827L10.2337 3.71372L10.2682 3.78282L10.2337 3.81737L10.3675 3.8476L10.4021 3.95125L10.5403 3.88215L10.8426 3.8476V3.9167H10.9116L10.8426 3.95125L10.9462 3.9858H10.8771L10.9462 4.02034L10.8771 4.05489H11.0455H11.0801L10.9116 4.22332L11.0455 4.32265L10.9807 4.3572L10.9462 4.56018L11.1189 4.62928L10.8814 4.56018L10.7778 4.62928L10.7432 4.83225L10.6785 4.66382L10.5748 4.7286L10.5403 4.62928L10.3719 4.7977L10.2034 4.69837L9.72844 4.76315L9.59025 4.66382L9.56003 4.49108L9.49093 4.69837L9.21888 4.62928L9.28797 4.8668L9.11524 4.83225L9.05047 4.90135L9.21888 5.03523L9.08501 5.00068L9.14547 5.10865L9.08501 5.16911L9.01592 5.03523V5.06978L8.94683 5.10433L8.98137 4.93158L8.77842 4.90135L8.81296 5.13888H8.74387L8.94683 5.23821H8.84751V5.3073L8.67478 5.13888L8.57546 5.16911L8.61 5.23821L8.54091 5.16911V5.40663L8.3034 5.47573V5.71326L8.50636 5.95078L8.43727 5.91624L8.16954 6.11921L8.0659 6.08466V6.01988L7.96658 6.08466L7.93203 6.39129L7.99681 6.35674L7.86294 6.46039L7.89748 6.62881L7.79385 6.69791L7.72907 6.62881L7.79385 6.79724L7.72907 6.72814L7.65998 6.86634L7.62543 6.76269L7.49157 7.00022V7.10387L7.59089 7.2032L7.65998 7.13842V7.23774L7.79385 7.2032L7.82839 7.27229L7.96658 7.2032L7.93203 7.27229L7.7593 7.37594H7.86294V7.44072H7.82839L7.84998 7.48823L7.87589 7.50118L7.96658 7.44072L7.93203 7.54437L8.16954 7.41049V7.50982H8.03135L8.10044 7.57892L7.99681 7.54437H7.93203H7.79385L7.86294 7.67825L7.79385 7.61347L7.82839 7.85099L7.72907 7.88123L7.62543 7.6437L7.52611 7.61347L7.55634 7.7819L7.42247 7.57892L7.45702 7.6437H7.38793H7.35338L7.42247 7.74735L7.35338 7.81645L7.45702 7.85099H7.35338L7.31883 7.98487V7.88123L7.25406 8.01942L7.31883 7.85099L7.28861 7.81645L7.21951 7.74735V7.61347L7.15042 7.7128V7.57892H7.12451C7.13965 7.59862 7.14731 7.62313 7.1461 7.64802V20.7725H16.4175V9.29775C16.4169 9.27362 16.4248 9.25006 16.4398 9.23114C16.4548 9.21222 16.4759 9.19912 16.4995 9.1941L16.4045 9.06886L16.0634 8.96953L15.6229 8.6629L15.5236 8.69745L15.5581 8.76655L15.3854 8.69745L15.2861 8.732V8.5938L14.9104 8.42538L14.7765 8.1533L14.2324 7.81645L14.2022 7.85099V7.7819L14.0985 7.81645L13.9301 7.64802L13.861 7.41049L14.064 7.34139L14.2324 6.93544L14.4354 6.83179L14.4699 6.62881L14.6426 6.25741L14.5045 6.35674L14.4354 6.32219L14.4051 6.01988L14.4699 6.05443L14.539 5.98533L14.4354 5.95078L14.4699 5.85146L14.5736 5.78236L14.6081 5.88169L14.7074 5.67871L14.742 5.85146L14.7765 5.67871L14.8758 5.71326L14.9104 5.61393L14.9795 5.78236L14.9104 5.88169L15.0486 5.81691L15.1479 5.61393L15.0486 5.51028L15.2515 5.54483L15.0486 5.3073L15.1133 5.34185L15.1479 5.27276L15.217 5.3764L15.1824 5.23821H15.2861L15.3508 5.06978L15.3206 4.96613H15.3854V5.06978L15.5884 4.83225L15.3854 4.62928L15.2861 4.69837L15.3508 4.76315H15.2515L15.1133 4.46085H15.0486L15.1479 4.32265L14.742 4.62928L14.9795 4.69837L14.8758 4.90135L14.7765 4.97045L14.6426 4.9359L14.5736 5.00068V4.90135H14.5045L14.6081 4.73292L14.5045 4.76315L14.4699 4.69837L14.6081 4.52563L14.336 4.66382L14.3015 4.76315L14.1979 4.69837L14.4699 4.39175L14.0985 4.59473L14.064 4.52563L13.8956 4.56018L13.7272 4.66382L13.861 4.73292L13.6581 4.69837L13.7272 4.7977L13.3169 4.62928L13.2176 4.39175L13.0794 4.56018L12.6735 4.46085L12.5742 4.66382L12.639 4.4954L12.5742 4.3572L12.5051 4.39175L12.4706 4.29242L12.3367 4.39175L12.233 4.29242L12.3367 4.18877L12.1985 4.15422L11.8962 4.32265L11.9308 4.18877L11.8617 4.25787L11.7926 4.15422L11.6933 4.22332L11.7235 4.11967L11.5205 4.15422L11.283 3.74827H11.2182L11.2485 3.8476L11.1837 3.81737L11.0153 3.95125L10.7778 3.61439L10.7087 3.71372L10.6741 3.51074L10.5748 3.57984L10.6051 3.67917L10.4366 3.51074L10.4712 3.71372L10.5403 3.74827L10.4712 3.8476L10.4021 3.61439L10.2682 3.51074Z" fill="#0000FF"/>
</svg>
