<svg width="24" height="24" viewBox="0 0 24 24" fill="none" xmlns="http://www.w3.org/2000/svg">
<path d="M8.97056 2.8689L8.84835 2.90045L8.75374 3.08575L8.56845 3.14883L8.59999 3.30259L8.50537 3.70474H8.47383L8.44624 3.92159H8.53691L8.4147 3.95313L8.38316 4.13843L8.44624 4.22911L8.50537 4.16997L8.44624 4.26066L8.38316 4.22911L8.35162 4.35528L8.32008 4.13843L8.16633 4.38682L8.26095 4.41836H8.16633L8.04412 4.72589H8.1348L8.10326 4.60366L8.19787 4.63126L8.1348 4.6628L8.26095 4.75743H8.4147L8.26095 4.82051L8.4147 4.87965L8.35162 4.91119L8.38316 5.06495L8.26095 4.84811L8.19787 5.00581L8.04412 5.12804L8.1348 5.40796L8.10326 5.49864L8.16633 5.4671L8.1348 5.49864L8.19787 5.53018H8.07172L7.91797 5.99542L8.07172 6.33448L7.98105 6.64595L8.10326 7.20186L7.91797 7.69469L7.8273 8.06924L7.88643 8.22301L7.6696 8.842L7.42518 9.14952L7.36211 9.55167L7.0822 9.76852L6.55788 9.89468L6.4948 9.86314L6.30951 9.74092L6.09269 9.70938L5.97048 9.55167L5.75365 9.46099L5.69057 9.18107L5.56836 9.05884L5.16625 8.93268L4.66952 8.87354L4.5 8.64487V19.0613H7.40153H7.40546C7.40803 19.0599 7.41066 19.0586 7.41335 19.0574C7.41466 19.0573 7.41597 19.0573 7.41728 19.0574C7.4186 19.0573 7.41991 19.0573 7.42122 19.0574C7.42385 19.0573 7.42648 19.0573 7.42911 19.0574C7.43046 19.0586 7.43177 19.06 7.43304 19.0613C7.43435 19.0613 7.43566 19.0613 7.43698 19.0613C7.43829 19.0613 7.4396 19.0613 7.44091 19.0613C7.44222 19.0613 7.44354 19.0613 7.44485 19.0613C7.44748 19.0612 7.45011 19.0612 7.45273 19.0613C7.45408 19.0626 7.4554 19.0639 7.45667 19.0652C7.45798 19.0652 7.45929 19.0652 7.46061 19.0652C7.46196 19.0665 7.46327 19.0678 7.46454 19.0692C7.46585 19.0692 7.46717 19.0692 7.46848 19.0692C7.46983 19.0705 7.47114 19.0718 7.47241 19.0731C7.47372 19.0731 7.47504 19.0731 7.47635 19.0731C7.47778 19.0757 7.4791 19.0783 7.48029 19.081C7.4816 19.081 7.48291 19.081 7.48422 19.081C7.48557 19.0823 7.48688 19.0836 7.48816 19.0849C7.48959 19.0875 7.4909 19.0901 7.49209 19.0928C7.49341 19.0928 7.49472 19.0928 7.49603 19.0928C7.50322 19.1023 7.50857 19.113 7.5118 19.1244C7.51337 19.1282 7.51468 19.1322 7.51573 19.1362C7.51717 19.1388 7.51848 19.1414 7.51967 19.1441C7.51992 19.148 7.51992 19.152 7.51967 19.1559V21.5175L15.1165 21.5294L15.1638 21.5057V21.486C15.1627 21.4736 15.1641 21.461 15.1679 21.4491C15.1717 21.4372 15.1778 21.4262 15.1858 21.4167C15.1939 21.4072 15.2037 21.3993 15.2148 21.3936C15.2259 21.3879 15.2381 21.3845 15.2505 21.3835L15.2742 21.3795L15.282 21.3007C15.2841 21.2763 15.2955 21.2536 15.3138 21.2374C15.3322 21.2213 15.3561 21.2129 15.3806 21.214L15.491 21.2179L15.5698 21.0957C15.578 21.0842 15.5886 21.0748 15.6009 21.068C15.6131 21.0611 15.6268 21.0571 15.6408 21.0562L15.7196 21.0484C15.7329 21.0469 15.7464 21.0482 15.7591 21.0523L15.9404 21.1114H15.9483L16.102 21.139L16.2834 21.072C16.2911 21.0697 16.299 21.0684 16.307 21.0681L16.4371 21.0562C16.4573 21.0536 16.4778 21.0576 16.4956 21.0675C16.5133 21.0775 16.5274 21.0929 16.5357 21.1114L16.5396 21.1233L16.5751 21.1193C16.59 21.1185 16.6048 21.1212 16.6185 21.1272L16.7289 21.1706C16.7316 21.1718 16.7342 21.1731 16.7367 21.1745L16.7959 21.2061L17.0206 21.21C17.026 21.2109 17.0312 21.2122 17.0364 21.2139L17.2019 21.2494C17.2246 21.2553 17.2442 21.2693 17.2571 21.2888L17.3478 21.4071V21.4111L17.4069 21.4781C17.4097 21.4806 17.4124 21.4832 17.4148 21.486L17.4779 21.5885C17.4861 21.6003 17.4915 21.6137 17.4937 21.6279L17.5016 21.7225L17.5134 21.7501L17.537 21.7068C17.5392 21.7013 17.5418 21.696 17.5449 21.691L17.6435 21.5727L17.7381 21.4584C17.7478 21.4476 17.7599 21.4391 17.7734 21.4337C17.7869 21.4284 17.8014 21.4261 17.8159 21.4273C17.8304 21.4284 17.8444 21.4329 17.8569 21.4403C17.8694 21.4478 17.88 21.458 17.8879 21.4702L17.9313 21.5412L17.9746 21.5609L18.0495 21.5214L18.0613 21.4899C18.0632 21.4831 18.0659 21.4764 18.0692 21.4702C18.0692 21.4689 18.0692 21.4676 18.0692 21.4663C18.0602 21.456 18.0534 21.4439 18.0495 21.4308L18.0101 21.277C18.006 21.2643 18.0047 21.2509 18.0062 21.2376L18.0219 21.1272C18.026 21.1075 18.0362 21.0897 18.0511 21.0762C18.066 21.0628 18.0848 21.0544 18.1047 21.0523L18.2348 21.0365L18.3689 21.0247L18.4359 20.9577C18.4383 20.9549 18.441 20.9522 18.4438 20.9498L18.5699 20.8591C18.5847 20.8476 18.6025 20.8407 18.6212 20.8394C18.6318 20.8389 18.6425 20.8402 18.6527 20.8433L18.7907 20.8827C18.8056 20.8873 18.8191 20.8954 18.8301 20.9064L18.905 20.9813L18.9957 20.9419C19.0156 20.9334 19.0379 20.932 19.0588 20.9379L19.1849 20.9695L19.2204 20.9656L19.2638 20.9498L19.2874 20.938L19.3387 20.8907C19.3486 20.8828 19.36 20.877 19.3721 20.8736C19.3843 20.8702 19.3971 20.8693 19.4096 20.8709L19.52 20.8828H19.5397L19.6264 20.8749C19.629 20.8734 19.6316 20.8721 19.6343 20.8709L19.5555 20.7881L19.4648 20.4175L19.4017 20.1376L19.3071 20.0154L19.2125 20.0745L19.2756 19.9838L19.1534 19.9208L19.244 19.8261L19.1535 19.7355L19.2757 19.6724L19.185 19.5817V19.4871L19.3388 19.6724L19.2442 19.3925L19.2126 19.4871L19.2757 19.2387L19.2166 19.1993L19.2442 18.9312H19.185L19.3073 18.4344H19.2442L19.185 18.3122L19.122 18.4975L19.1535 18.3438H19.0589L19.122 18.2807L18.9958 18.186V18.0007L19.0904 17.9101L18.9051 17.9692L19.0589 17.9101L19.0274 17.7524L18.6883 17.6617L18.779 17.5986L18.5937 17.3817L18.6252 17.2595L18.5346 17.1964L18.503 17.2595L18.5346 17.1649L18.3493 17.0742V17.1058L18.1916 16.9481L18.0378 16.5459L17.9156 16.5144L17.9472 16.3921L17.8841 16.4868V16.3921L17.7895 16.3606L17.8526 16.4868L17.7303 16.4237V16.4868L17.6042 16.4237V16.4868L17.2021 15.9269L17.1114 16.0531L16.9852 15.8678L17.0483 15.8362L16.9537 15.6509L17.0168 15.5878L16.9222 15.2488H16.9852L17.0168 15.0004L16.9537 14.8466V14.9373L16.8946 14.9097L16.8315 14.7836L16.9222 14.8151L16.9537 14.7836L16.863 14.6298V14.752L16.8315 14.6298L16.7684 14.5982L16.7369 14.6929L16.8315 14.8466L16.7684 14.8151L16.8315 14.9689L16.3978 14.6613L16.2441 14.4129L16.2126 14.476L16.1179 14.6298L16.2126 14.8466L16.2756 14.9689L16.2126 14.9097L16.0273 14.6929L15.842 14.9097L15.9327 14.6929H15.8104L15.8735 14.6613L15.842 14.5982L15.7158 14.6298L15.842 14.5667L15.6567 14.133L15.7158 13.7939L15.6882 13.857L15.5621 13.7309L15.5305 13.7939V13.514L15.4083 13.5771L15.4399 13.4825H15.4083L15.4714 13.3287L15.3453 13.2065L15.2546 13.2696L15.2822 13.1434H15.0653L15.0378 13.0527L15.0969 13.0212L14.9431 12.9266L14.9747 12.8635L14.8801 12.7728L14.9747 12.7413L14.9116 12.6782L15.0062 12.7097L15.0378 12.6466L15.1915 12.7728L15.0062 12.4613L14.9431 12.4929V12.4022H14.8525L14.8209 12.276H14.7263H14.6948V12.4022L14.6041 12.3707L14.4779 12.2445L14.5095 12.2169V12.1854L14.3557 12.0907L14.1704 12.1223L14.1074 11.9054H14.0167L14.0758 12.0592L13.9536 12.0276L13.7683 11.8423L13.8905 11.9054L13.7053 11.5033V11.6255L13.4254 11.657L13.3031 11.3811L13.2716 11.5033H13.1809L13.0863 11.3811L12.7788 11.2549L12.5935 11.038L12.6527 10.699H12.5305L12.3136 10.3284L12.4674 9.80006H12.4043V9.55562L12.219 9.21261L12.2821 9.05884L12.1283 9.09038L11.7578 8.59361V8.43985H11.8169V8.22301L11.6947 8.06924L11.6631 7.72623L11.5409 7.60401L11.6947 7.41871V7.38717L11.6001 7.41871L11.5685 7.26494L11.6947 7.10724H11.6316L11.5685 6.98502L11.3832 6.95348L11.261 6.76817L11.0442 6.70509L10.8905 6.30294L10.7052 6.46065L10.579 6.39756L10.5199 6.58287L10.3307 6.67749L10.1769 6.55133L10.0862 6.14918L9.92854 5.90079L9.99162 5.59327L9.90094 5.2818L9.92854 5.00581L9.74325 5.06495L9.83787 4.78897L9.65258 4.6628V4.54058L9.49883 4.50904L9.46729 4.2922L9.65258 4.13843L9.49883 4.07535L9.37268 4.10689L9.282 4.01621V3.55098L9.15585 3.18037H9.06518L9.0021 3.05421V3.11729L8.87989 3.18037L9.03364 2.93199L9.0021 2.90045L8.97056 2.8689Z" fill="#0000FF"/>
<path d="M5.66113 8.77994L5.81573 8.8728L5.87778 8.77994L5.97034 8.81089L6.06333 8.62518L6.09428 8.71804L6.21779 8.68709L6.06333 8.53247L5.81573 8.62518L5.66113 8.77994Z" fill="#0000FF"/>
<path d="M5.9395 9.30613L6.09424 9.24408L6.0322 9.15137L5.90869 9.24408L5.9395 9.30613Z" fill="#0000FF"/>
<path d="M12.623 10.4203L12.5302 10.3584L12.5613 10.4822L12.4062 10.4203L12.5302 10.5441V10.6679H12.6538L12.623 10.4203Z" fill="#0000FF"/>
<path d="M8.63206 2.77637L8.53906 2.86937L8.63206 2.96208L8.72491 2.90018L8.63206 2.77637Z" fill="#0000FF"/>
<path d="M8.63184 2.40497L8.72468 2.46702L8.78629 2.37401L8.69373 2.31226L8.63184 2.37401V2.40497Z" fill="#0000FF"/>
<path d="M12.8706 10.9463H12.9941L12.9011 10.8535L12.8706 10.9463Z" fill="#0000FF"/>
<path d="M8.53906 2.31205V2.343L8.6013 2.37381L8.63235 2.25L8.53906 2.31205Z" fill="#0000FF"/>
<path d="M13.0879 11.3176L13.1498 11.3796L13.1807 11.3176H13.0879Z" fill="#0000FF"/>
<path d="M15.1921 12.3699L15.1611 12.5246H15.3159L15.2538 12.4627L15.1921 12.3699Z" fill="#0000FF"/>
<path d="M16.1205 14.3503L16.0889 14.4433V14.4742L16.1205 14.5361V14.3503Z" fill="#0000FF"/>
<path d="M15.1915 12.3697L15.2224 12.2769L15.1294 12.3697H15.1915Z" fill="#0000FF"/>
<path d="M19.0596 18.0639L19.1832 18.2806L19.4618 17.4449L19.3997 17.3211V17.1045L19.2453 17.2283L19.3688 17.4141L19.1212 17.6926H19.1832L19.1212 17.9091L19.0596 18.0639Z" fill="#0000FF"/>
<path d="M17.4193 15.8359L17.3573 15.8976L17.2338 15.8049L17.1719 15.8359L17.2647 15.9597L17.4503 16.1762L17.4193 15.8359Z" fill="#0000FF"/>
<path d="M16.6769 14.6598L16.7698 14.5981L16.6769 14.5051L16.646 14.5981L16.6769 14.6598Z" fill="#0000FF"/>
<path d="M19.5234 20.354L19.5545 20.385L19.6471 20.0755L19.5545 20.0137L19.5234 20.354Z" fill="#0000FF"/>
<path d="M19.546 20.4441L19.5402 20.4421L19.5234 20.5088V20.6016L19.546 20.4441Z" fill="#0000FF"/>
<path d="M19.547 20.416L19.541 20.4421L19.5463 20.4442L19.5499 20.416H19.547Z" fill="#0000FF"/>
<path d="M19.5464 20.4154H19.5494L19.5536 20.385L19.5464 20.4154Z" fill="#0000FF"/>
<path d="M19.4927 19.6734L19.5549 19.9829L19.5858 19.6116L19.4927 19.6734Z" fill="#0000FF"/>
<path d="M17.141 15.8977L17.0479 15.9286L17.1099 15.9907L17.141 15.8977Z" fill="#0000FF"/>
<path d="M16.5223 13.9169L16.46 13.886V13.9479L16.5223 13.9169Z" fill="#0000FF"/>
</svg>
