<svg width="24" height="24" viewBox="0 0 24 24" fill="none" xmlns="http://www.w3.org/2000/svg">
<path d="M5.62501 4.5V10.6958L6.67304 10.5985L6.8455 10.5632L7.53976 10.6339L7.92006 10.4216L8.57894 10.771L9.06537 11.1513H9.37934L9.34396 11.085L9.41471 11.0496H9.65793L10.0736 11.3946H10.4893L10.3876 11.2929L10.4539 11.2575L10.5246 11.3282L10.5954 11.2221L10.9757 11.6024L10.8696 11.6378V11.8103L11.0818 11.7086L11.2189 11.744L11.356 12.0181L11.2543 12.1597L11.2897 12.0535H11.1128L11.1835 12.195L11.1128 12.2968L11.2543 12.3321L11.1835 12.4383L11.3914 12.6461L11.3206 12.4383L11.4267 12.6461L11.5329 12.5754L11.7407 12.7169L11.6346 12.6108L11.807 12.6461L11.7407 12.7169L11.9486 12.9911V13.1989L12.3288 13.5483L12.5367 14.4859L12.5721 14.3797L12.6074 14.4859L12.6782 14.5212L12.5367 14.5566L12.4659 14.4151L12.5013 14.3797L12.3642 14.3443V14.278L12.2581 14.4859L12.3996 14.4151L12.8153 14.937L12.9877 14.8308L13.1602 15.0387L13.2309 14.6583L12.9877 14.7645L13.0939 14.6937L13.1292 14.4151L13.2663 14.3443L13.3371 14.4151V14.1719L13.8545 13.5837L14.2746 13.3758L14.1684 13.4068L14.2392 13.2697L14.3099 13.3405L14.5487 13.2697L14.7919 12.5754L14.9998 12.3321L15.1413 12.4029V11.7086L15.3137 12.0889L15.3491 12.4029L15.4552 12.5046L15.1767 12.7478L15.3845 13.1326L14.9688 13.5483L14.8627 13.8579L14.7919 13.8933L14.8627 14.1011L14.7566 14.3134L14.8273 14.278L14.8627 14.4859L14.7919 14.9016L14.7256 14.9723L14.3055 14.8662L14.133 15.388L14.4824 15.3527L14.7566 15.1448L14.9998 15.2465L15.1413 15.1802L15.0705 15.1094L15.243 14.7291L15.2784 14.3797L15.4862 13.8933L15.9726 14.7379L16.008 14.7954L15.9372 14.8308L15.9019 14.7291L15.8709 15.4898L15.4862 15.8391L15.9726 15.8745L16.1805 15.702L16.3529 15.733L16.8747 16.1487L16.3529 15.7684L16.804 16.1177L17.1002 16.4981L16.8747 16.1531L17.0472 16.2902L17.2594 16.7413L17.1666 16.5998L17.4319 17.2985L17.3965 17.471L17.2241 17.6435L17.3612 17.8513L17.2904 17.9575L17.569 18.3378L17.9714 18.8773L17.9847 18.926L18.1969 19.1029L18.5241 19.125C18.5128 19.1079 18.5067 19.088 18.5065 19.0675V4.5H5.625H5.62501Z" fill="#0000FF"/>
<path d="M17.166 16.5997L17.154 16.5683L17.1016 16.5005L17.166 16.5997Z" fill="#0000FF"/>
<path d="M14.9663 16.3598L15.001 16.2208H15.4523L15.5216 16.0821L15.2786 15.9779L15.1399 16.1517L15.1746 15.9779H14.9314L15.001 15.7698L13.8556 16.0126L13.7861 16.1862L13.9946 16.4293L14.307 16.3946L14.5499 16.3251L14.8274 16.464L14.9663 16.3598Z" fill="#0000FF"/>
<path d="M13.4393 15.1101L13.4044 15.0059L13.3003 14.9365L13.4393 15.1101Z" fill="#0000FF"/>
<path d="M10.6633 11.4307L10.5244 11.4653L10.5591 11.5347L10.6633 11.4307Z" fill="#0000FF"/>
</svg>
