<svg width="24" height="24" viewBox="0 0 24 24" fill="none" xmlns="http://www.w3.org/2000/svg">
<path d="M15.5515 16.4983V16.1825L15.8669 16.5773L15.7086 15.8668L15.3143 15.9457L15.0774 15.5513L14.9199 16.025L15.2353 16.1036L15.0774 16.2619L15.3143 16.5773L15.5515 16.4983Z" fill="#0000FF"/>
<path d="M15.3931 15.3934L15.7085 15.8668L15.7878 15.3145L15.3931 15.3934Z" fill="#0000FF"/>
<path d="M8.76307 8.44723V8.60476L7.65789 8.05249L7.73719 8.68371L7.5 9.1574L7.81539 10.4996L8.36836 11.289L8.2101 11.4466L8.99989 12.4729V13.1831L9.23634 12.9462L9.63105 13.6568H9.78856L9.63105 14.2094L9.55211 13.7361L8.84164 13.1041L9.07809 14.5252L9.31529 14.6041L9.70999 15.788L10.1047 15.9459L10.499 16.8143H10.7362L10.578 16.7354L10.7362 16.4192L10.8941 16.8933H11.5256L11.4463 17.0512L10.8941 16.8933V17.1297L10.7362 17.0512L10.9727 17.6828L11.5256 17.4455L12.3929 17.6038L12.3151 17.367L12.6301 17.9192H13.1034L13.4195 17.4455L13.1823 17.2087L13.4988 17.288L13.5778 16.9722L13.3406 16.8933L13.6567 16.7354L13.3406 16.341L13.4195 16.1827V16.4192L13.5778 16.5775L13.6567 16.341V16.5775L13.9717 16.7354L14.051 15.8669L14.2882 15.9459V15.4726L13.8928 14.841L14.4454 15.5515L14.6033 15.4726L14.4454 15.9459L14.7615 15.709L14.6822 15.3147L14.9194 15.2357L14.5243 14.9989L14.9194 15.0775L15.0769 15.4726L15.3927 15.3936L15.7874 14.6831L15.5509 14.2883L15.8663 14.1304L15.9449 13.4992L15.7081 13.5778L16.1031 12.7887H16.3396L16.1031 12.7097L16.4185 12.2361L16.261 12.7097L16.6554 12.8673V13.3413L16.8136 13.1041L16.5768 12.5519L16.6554 11.1308L16.4978 10.6575L16.7343 10.0259L16.4978 9.78936L16.7343 9.1574L16.1031 8.36828L15.7081 8.28934L15.5509 8.76303L15.0769 8.52618L14.5243 9.1574L14.13 8.92055L13.7353 9.23672L13.4195 9.07882L12.8673 9.3153L13.2616 9.71041L13.1823 9.86794L12.709 9.3153L12.3151 9.63109L12.3929 9.94725L12.2357 9.55214L11.5256 9.71041L9.70999 8.60476H9.23634L9.07809 8.21039V8.52618L8.76307 8.44723Z" fill="#0000FF"/>
<path d="M13.9718 17.2086L14.209 17.5247V16.8142L14.5244 16.5774L14.2884 16.0251L14.0512 16.3409L14.3666 16.4191L14.2884 16.6563L13.814 16.9721V17.3665L13.9718 17.2086Z" fill="#0000FF"/>
<path d="M13.8144 17.3665L13.6572 17.2083L13.7358 17.4451L13.8144 17.3665Z" fill="#0000FF"/>
<path d="M15.9453 14.6038V14.6827V14.9196L16.2615 14.6038L16.0246 14.3669L15.9453 14.6038Z" fill="#0000FF"/>
<path d="M15.3147 6L15.2349 6.1579V6.23684L15.3147 6Z" fill="#0000FF"/>
</svg>
