<svg width="24" height="24" viewBox="0 0 24 24" fill="none" xmlns="http://www.w3.org/2000/svg">
<path d="M7.1999 5.725C7.1999 7.0175 6.1199 8.075 4.7999 8.075C3.4799 8.075 2.3999 7.0175 2.3999 5.725C2.3999 4.4325 3.4799 3.375 4.7999 3.375C6.1199 3.375 7.1999 4.4325 7.1999 5.725Z" fill="#0000FF"/>
<path d="M8.136 9.9315C9.024 10.3075 9.6 11.1535 9.6 12.1053V12.775H0V12.1053C0 11.1535 0.576 10.3075 1.464 9.9315C2.484 9.49675 3.612 9.25 4.8 9.25C5.988 9.25 7.116 9.49675 8.136 9.9315Z" fill="#0000FF"/>
<path d="M21.6 5.725C21.6 7.0175 20.5201 8.075 19.2001 8.075C17.8801 8.075 16.8 7.0175 16.8 5.725C16.8 4.4325 17.8801 3.375 19.2001 3.375C20.5201 3.375 21.6 4.4325 21.6 5.725Z" fill="#0000FF"/>
<path d="M22.5359 9.9315C23.4239 10.3075 23.9999 11.1535 23.9999 12.1053V12.775H14.3999V12.1053C14.3999 11.1535 14.9759 10.3075 15.8639 9.9315C16.8839 9.49675 18.0119 9.25 19.1999 9.25C20.3879 9.25 21.5159 9.49675 22.5359 9.9315Z" fill="#0000FF"/>
<path d="M20.4 18.6383V21L24 17.475L20.4 13.95V16.3L3.6 16.3118V13.95L0 17.475L3.6 21V18.65L20.4 18.6383Z" fill="#0000FF"/>
</svg>
