<svg width="24" height="24" viewBox="0 0 24 24" fill="none" xmlns="http://www.w3.org/2000/svg">
<path d="M2 17H4V17.5H3V18.5H4V19H2V20H5V16H2V17ZM3 8.00003H4V4.00003H2V5.00003H3V8.00003ZM2 11H3.8L2 13.1V14H5V13H3.2L5 10.9V10H2V11ZM7 5.00003V7.00003H21V5.00003H7ZM7 19H14V17H7V19ZM7 13H21V11H7V13Z" fill="#0000FF"/>
<path d="M15.385 18.3951H19.686L17.807 20.3233C17.6568 20.4774 17.6568 20.7303 17.807 20.8844C17.9572 21.0385 18.1997 21.0385 18.3499 20.8844L20.8874 18.2805C21.0375 18.1264 21.0375 17.8775 20.8874 17.7234L18.3538 15.1156C18.2818 15.0416 18.1842 15 18.0823 15C17.9805 15 17.8828 15.0416 17.8108 15.1156C17.6607 15.2697 17.6607 15.5186 17.8108 15.6727L19.686 17.6049H15.385C15.1733 17.6049 15 17.7827 15 18C15 18.2173 15.1733 18.3951 15.385 18.3951Z" fill="#0000FF"/>
</svg>
