<svg width="24" height="24" viewBox="0 0 24 24" fill="none" xmlns="http://www.w3.org/2000/svg">
<path fill-rule="evenodd" clip-rule="evenodd" d="M3 0C1.34315 0 0 1.34315 0 3V21C0 22.6569 1.34315 24 3 24H21C22.6569 24 24 22.6569 24 21V3C24 1.34315 22.6569 0 21 0H3ZM8.17665 18.39C8.69665 18.91 9.53665 18.91 10.0566 18.39L20.1633 8.27C20.6833 7.75 20.6833 6.91 20.1633 6.39C19.6433 5.87 18.8033 5.87 18.2833 6.39L9.10998 15.5633L5.26998 11.7233C4.74998 11.2033 3.90998 11.2033 3.38998 11.7233C3.14031 11.9724 3 12.3106 3 12.6633C3 13.016 3.14031 13.3542 3.38998 13.6033L8.17665 18.39Z" fill="white"/>
</svg>
