<?xml version="1.0" encoding="utf-8"?>
<!-- Generator: Adobe Illustrator 16.0.3, SVG Export Plug-In . SVG Version: 6.00 Build 0)  -->
<!DOCTYPE svg PUBLIC "-//W3C//DTD SVG 1.1//EN" "http://www.w3.org/Graphics/SVG/1.1/DTD/svg11.dtd">
<svg version="1.1" id="Layer_1" xmlns="http://www.w3.org/2000/svg" xmlns:xlink="http://www.w3.org/1999/xlink" x="0px" y="0px"
	 width="1069px" height="71px" viewBox="0 0 1069 71" enable-background="new 0 0 1069 71" xml:space="preserve">
<path fill="#FFFFFF" d="M33.133,42h-6.156L16.681,26.412V42h-6.156V16.728h6.156l10.296,15.66v-15.66h6.156V42z M36.371,31.92
	c0-2.064,0.384-3.876,1.152-5.436c0.792-1.56,1.86-2.76,3.204-3.6c1.344-0.84,2.844-1.26,4.5-1.26c1.416,0,2.652,0.288,3.708,0.864
	c1.08,0.576,1.908,1.332,2.484,2.268v-2.844h6.156V42h-6.156v-2.844c-0.6,0.936-1.44,1.691-2.52,2.268
	c-1.056,0.576-2.292,0.864-3.708,0.864c-1.632,0-3.12-0.42-4.464-1.261c-1.344-0.863-2.412-2.075-3.204-3.635
	C36.755,35.808,36.371,33.984,36.371,31.92z M51.419,31.956c0-1.536-0.432-2.748-1.296-3.636c-0.84-0.888-1.872-1.332-3.096-1.332
	s-2.268,0.444-3.132,1.332c-0.84,0.864-1.26,2.064-1.26,3.6s0.42,2.76,1.26,3.672c0.864,0.889,1.908,1.332,3.132,1.332
	s2.256-0.443,3.096-1.332C50.987,34.704,51.419,33.492,51.419,31.956z M73.225,36.78V42h-3.132c-2.232,0-3.972-0.54-5.22-1.62
	c-1.248-1.104-1.872-2.892-1.872-5.364v-7.992h-2.448v-5.112h2.448v-4.896h6.156v4.896h4.032v5.112h-4.032v8.064
	c0,0.6,0.144,1.032,0.432,1.296c0.288,0.265,0.768,0.396,1.44,0.396H73.225z M79.75,19.824c-1.08,0-1.968-0.312-2.664-0.936
	c-0.672-0.648-1.008-1.44-1.008-2.376c0-0.96,0.336-1.752,1.008-2.376c0.696-0.648,1.584-0.972,2.664-0.972
	c1.056,0,1.92,0.324,2.592,0.972c0.696,0.624,1.044,1.416,1.044,2.376c0,0.936-0.348,1.728-1.044,2.376
	C81.67,19.512,80.806,19.824,79.75,19.824z M82.81,21.912V42h-6.156V21.912H82.81z M96.415,42.288c-1.968,0-3.744-0.42-5.328-1.261
	c-1.56-0.84-2.796-2.039-3.708-3.6c-0.888-1.56-1.332-3.384-1.332-5.472c0-2.064,0.456-3.876,1.368-5.436
	c0.912-1.584,2.16-2.796,3.744-3.636c1.584-0.84,3.36-1.26,5.328-1.26c1.968,0,3.744,0.42,5.328,1.26
	c1.584,0.84,2.832,2.052,3.744,3.636c0.912,1.56,1.368,3.372,1.368,5.436s-0.468,3.888-1.404,5.472
	c-0.912,1.561-2.172,2.76-3.78,3.6C100.159,41.868,98.383,42.288,96.415,42.288z M96.415,36.96c1.176,0,2.172-0.433,2.988-1.296
	c0.84-0.864,1.26-2.1,1.26-3.708s-0.408-2.844-1.224-3.708c-0.792-0.864-1.776-1.296-2.952-1.296c-1.2,0-2.196,0.432-2.988,1.296
	c-0.792,0.84-1.188,2.076-1.188,3.708c0,1.608,0.384,2.844,1.152,3.708C94.255,36.527,95.239,36.96,96.415,36.96z M122.433,21.696
	c2.352,0,4.224,0.768,5.616,2.304c1.416,1.512,2.124,3.6,2.124,6.264V42h-6.12V31.092c0-1.344-0.348-2.388-1.044-3.132
	c-0.696-0.744-1.632-1.116-2.808-1.116c-1.176,0-2.112,0.372-2.808,1.116c-0.696,0.744-1.044,1.788-1.044,3.132V42h-6.156V21.912
	h6.156v2.664c0.624-0.888,1.464-1.584,2.52-2.088C119.925,21.96,121.113,21.696,122.433,21.696z M133.227,31.92
	c0-2.064,0.384-3.876,1.152-5.436c0.792-1.56,1.86-2.76,3.204-3.6c1.344-0.84,2.844-1.26,4.5-1.26c1.416,0,2.652,0.288,3.708,0.864
	c1.08,0.576,1.908,1.332,2.484,2.268v-2.844h6.156V42h-6.156v-2.844c-0.6,0.936-1.44,1.691-2.52,2.268
	c-1.056,0.576-2.292,0.864-3.708,0.864c-1.632,0-3.12-0.42-4.464-1.261c-1.344-0.863-2.412-2.075-3.204-3.635
	C133.611,35.808,133.227,33.984,133.227,31.92z M148.275,31.956c0-1.536-0.432-2.748-1.296-3.636
	c-0.84-0.888-1.872-1.332-3.096-1.332c-1.224,0-2.268,0.444-3.132,1.332c-0.84,0.864-1.26,2.064-1.26,3.6s0.42,2.76,1.26,3.672
	c0.864,0.889,1.908,1.332,3.132,1.332c1.224,0,2.256-0.443,3.096-1.332C147.843,34.704,148.275,33.492,148.275,31.956z
	 M165.04,15.36V42h-6.156V15.36H165.04z M193.906,24.72c-0.456-0.84-1.116-1.476-1.98-1.908c-0.84-0.456-1.836-0.684-2.988-0.684
	c-1.992,0-3.588,0.66-4.788,1.98c-1.2,1.296-1.8,3.036-1.8,5.22c0,2.328,0.624,4.152,1.872,5.472
	c1.272,1.296,3.012,1.944,5.22,1.944c1.512,0,2.784-0.385,3.816-1.152c1.056-0.768,1.824-1.872,2.304-3.312h-7.812v-4.536h13.392
	v5.724c-0.456,1.536-1.236,2.964-2.34,4.284c-1.08,1.32-2.46,2.389-4.14,3.204c-1.68,0.815-3.576,1.224-5.688,1.224
	c-2.496,0-4.728-0.539-6.696-1.619c-1.944-1.104-3.468-2.629-4.572-4.573c-1.08-1.944-1.62-4.164-1.62-6.66s0.54-4.716,1.62-6.66
	c1.104-1.968,2.628-3.492,4.572-4.572c1.944-1.104,4.164-1.656,6.66-1.656c3.024,0,5.568,0.732,7.632,2.196
	c2.088,1.464,3.468,3.492,4.14,6.084H193.906z M207.648,19.824c-1.08,0-1.968-0.312-2.664-0.936
	c-0.672-0.648-1.008-1.44-1.008-2.376c0-0.96,0.336-1.752,1.008-2.376c0.696-0.648,1.584-0.972,2.664-0.972
	c1.056,0,1.92,0.324,2.592,0.972c0.696,0.624,1.044,1.416,1.044,2.376c0,0.936-0.348,1.728-1.044,2.376
	C209.568,19.512,208.704,19.824,207.648,19.824z M210.708,21.912V42h-6.156V21.912H210.708z M222.802,21.624
	c1.416,0,2.652,0.288,3.708,0.864c1.08,0.576,1.908,1.332,2.484,2.268v-2.844h6.156v20.052c0,1.849-0.372,3.517-1.116,5.004
	c-0.72,1.513-1.836,2.712-3.348,3.601c-1.488,0.888-3.348,1.332-5.58,1.332c-2.976,0-5.388-0.709-7.236-2.125
	c-1.848-1.392-2.904-3.287-3.168-5.688h6.084c0.192,0.768,0.648,1.368,1.368,1.801c0.72,0.455,1.608,0.684,2.664,0.684
	c1.272,0,2.28-0.372,3.024-1.116c0.768-0.72,1.152-1.884,1.152-3.492V39.12c-0.6,0.937-1.428,1.704-2.484,2.304
	c-1.056,0.576-2.292,0.864-3.708,0.864c-1.656,0-3.156-0.42-4.5-1.261c-1.344-0.863-2.412-2.075-3.204-3.635
	c-0.768-1.584-1.152-3.409-1.152-5.473s0.384-3.876,1.152-5.436c0.792-1.56,1.86-2.76,3.204-3.6
	C219.646,22.044,221.146,21.624,222.802,21.624z M228.994,31.956c0-1.536-0.432-2.748-1.296-3.636
	c-0.84-0.888-1.872-1.332-3.096-1.332s-2.268,0.444-3.132,1.332c-0.84,0.864-1.26,2.064-1.26,3.6s0.42,2.76,1.26,3.672
	c0.864,0.889,1.908,1.332,3.132,1.332s2.256-0.443,3.096-1.332C228.562,34.704,228.994,33.492,228.994,31.956z M255.083,26.808
	v5.112h-15.84v-5.112H255.083z M394.864,16.728c2.664,0,4.992,0.528,6.983,1.584c1.992,1.056,3.528,2.544,4.608,4.464
	c1.104,1.896,1.656,4.092,1.656,6.588c0,2.472-0.553,4.668-1.656,6.588c-1.08,1.92-2.628,3.407-4.644,4.464
	C399.82,41.473,397.504,42,394.864,42h-9.468V16.728H394.864z M394.468,36.672c2.328,0,4.141-0.636,5.437-1.908
	s1.943-3.072,1.943-5.4c0-2.328-0.647-4.14-1.943-5.437c-1.296-1.296-3.108-1.944-5.437-1.944h-2.916v14.688H394.468z
	 M410.328,31.92c0-2.064,0.384-3.876,1.152-5.436c0.792-1.56,1.859-2.76,3.203-3.6c1.345-0.84,2.845-1.26,4.5-1.26
	c1.416,0,2.652,0.288,3.708,0.864c1.08,0.576,1.908,1.332,2.484,2.268v-2.844h6.156V42h-6.156v-2.844
	c-0.6,0.936-1.44,1.691-2.52,2.268c-1.057,0.576-2.292,0.864-3.708,0.864c-1.633,0-3.12-0.42-4.465-1.261
	c-1.344-0.863-2.411-2.075-3.203-3.635C410.712,35.808,410.328,33.984,410.328,31.92z M425.376,31.956
	c0-1.536-0.432-2.748-1.296-3.636c-0.84-0.888-1.872-1.332-3.096-1.332c-1.225,0-2.269,0.444-3.133,1.332
	c-0.84,0.864-1.26,2.064-1.26,3.6s0.42,2.76,1.26,3.672c0.864,0.889,1.908,1.332,3.133,1.332c1.224,0,2.256-0.443,3.096-1.332
	C424.944,34.704,425.376,33.492,425.376,31.956z M444.158,42.288c-1.752,0-3.313-0.3-4.681-0.899
	c-1.367-0.601-2.447-1.416-3.239-2.449c-0.792-1.056-1.236-2.231-1.332-3.527h6.084c0.072,0.695,0.396,1.26,0.972,1.691
	c0.576,0.433,1.284,0.648,2.124,0.648c0.768,0,1.356-0.145,1.764-0.432c0.433-0.313,0.648-0.709,0.648-1.188
	c0-0.576-0.3-0.996-0.9-1.26c-0.6-0.288-1.571-0.6-2.916-0.936c-1.439-0.336-2.64-0.684-3.6-1.044
	c-0.96-0.384-1.788-0.972-2.484-1.764c-0.695-0.816-1.044-1.908-1.044-3.276c0-1.152,0.313-2.196,0.937-3.132
	c0.647-0.96,1.584-1.716,2.808-2.268c1.248-0.552,2.725-0.828,4.428-0.828c2.521,0,4.5,0.624,5.94,1.872
	c1.464,1.248,2.304,2.904,2.52,4.968h-5.688c-0.096-0.696-0.408-1.248-0.936-1.656c-0.505-0.408-1.177-0.612-2.017-0.612
	c-0.72,0-1.271,0.144-1.656,0.432c-0.384,0.264-0.575,0.636-0.575,1.116c0,0.576,0.3,1.008,0.899,1.296
	c0.624,0.288,1.584,0.576,2.88,0.864c1.488,0.384,2.7,0.768,3.637,1.152c0.936,0.36,1.752,0.96,2.447,1.8
	c0.721,0.816,1.092,1.92,1.116,3.312c0,1.176-0.336,2.232-1.008,3.168c-0.648,0.912-1.596,1.632-2.844,2.16
	C447.218,42.023,445.79,42.288,444.158,42.288z M468.408,21.696c2.304,0,4.151,0.768,5.544,2.304c1.392,1.512,2.088,3.6,2.088,6.264
	V42h-6.12V31.092c0-1.344-0.348-2.388-1.044-3.132s-1.632-1.116-2.808-1.116c-1.177,0-2.112,0.372-2.809,1.116
	c-0.695,0.744-1.044,1.788-1.044,3.132V42h-6.156V15.36h6.156v9.252c0.624-0.888,1.477-1.596,2.557-2.124
	C465.852,21.96,467.064,21.696,468.408,21.696z M486.474,24.756c0.576-0.936,1.404-1.692,2.484-2.268
	c1.08-0.576,2.316-0.864,3.708-0.864c1.656,0,3.156,0.42,4.5,1.26c1.344,0.84,2.4,2.04,3.168,3.6
	c0.792,1.56,1.188,3.372,1.188,5.436s-0.396,3.888-1.188,5.473c-0.768,1.56-1.824,2.771-3.168,3.635
	c-1.344,0.841-2.844,1.261-4.5,1.261c-1.416,0-2.652-0.276-3.708-0.828c-1.056-0.576-1.884-1.332-2.484-2.269V42h-6.155V15.36h6.155
	V24.756z M495.258,31.92c0-1.536-0.432-2.736-1.296-3.6c-0.84-0.888-1.884-1.332-3.132-1.332c-1.224,0-2.268,0.444-3.132,1.332
	c-0.84,0.888-1.261,2.1-1.261,3.636s0.421,2.748,1.261,3.636c0.864,0.889,1.908,1.332,3.132,1.332s2.268-0.443,3.132-1.332
	C494.826,34.68,495.258,33.456,495.258,31.92z M513.896,42.288c-1.969,0-3.744-0.42-5.328-1.261c-1.561-0.84-2.796-2.039-3.708-3.6
	c-0.889-1.56-1.332-3.384-1.332-5.472c0-2.064,0.456-3.876,1.368-5.436c0.911-1.584,2.159-2.796,3.743-3.636
	c1.584-0.84,3.36-1.26,5.328-1.26s3.744,0.42,5.328,1.26c1.584,0.84,2.832,2.052,3.744,3.636c0.912,1.56,1.368,3.372,1.368,5.436
	s-0.468,3.888-1.404,5.472c-0.912,1.561-2.172,2.76-3.78,3.6C517.64,41.868,515.864,42.288,513.896,42.288z M513.896,36.96
	c1.176,0,2.172-0.433,2.987-1.296c0.84-0.864,1.26-2.1,1.26-3.708s-0.407-2.844-1.224-3.708c-0.792-0.864-1.776-1.296-2.952-1.296
	c-1.2,0-2.195,0.432-2.987,1.296c-0.793,0.84-1.188,2.076-1.188,3.708c0,1.608,0.384,2.844,1.152,3.708
	C511.736,36.527,512.72,36.96,513.896,36.96z M526.449,31.92c0-2.064,0.384-3.876,1.151-5.436c0.792-1.56,1.86-2.76,3.204-3.6
	c1.345-0.84,2.845-1.26,4.5-1.26c1.416,0,2.652,0.288,3.708,0.864c1.08,0.576,1.908,1.332,2.484,2.268v-2.844h6.156V42h-6.156
	v-2.844c-0.601,0.936-1.44,1.691-2.521,2.268c-1.056,0.576-2.292,0.864-3.708,0.864c-1.632,0-3.119-0.42-4.464-1.261
	c-1.344-0.863-2.412-2.075-3.204-3.635C526.833,35.808,526.449,33.984,526.449,31.92z M541.497,31.956
	c0-1.536-0.432-2.748-1.296-3.636c-0.84-0.888-1.872-1.332-3.096-1.332c-1.225,0-2.269,0.444-3.133,1.332
	c-0.84,0.864-1.26,2.064-1.26,3.6s0.42,2.76,1.26,3.672c0.864,0.889,1.908,1.332,3.133,1.332c1.224,0,2.256-0.443,3.096-1.332
	C541.065,34.704,541.497,33.492,541.497,31.956z M558.263,25.26c0.721-1.104,1.62-1.968,2.7-2.592c1.08-0.648,2.28-0.972,3.6-0.972
	v6.516h-1.691c-1.536,0-2.688,0.336-3.456,1.008c-0.769,0.648-1.152,1.8-1.152,3.456V42h-6.155V21.912h6.155V25.26z M566.281,31.92
	c0-2.064,0.384-3.876,1.151-5.436c0.792-1.56,1.86-2.76,3.204-3.6c1.345-0.84,2.845-1.26,4.5-1.26c1.32,0,2.521,0.276,3.601,0.828
	c1.104,0.552,1.968,1.296,2.592,2.232V15.36h6.156V42h-6.156v-2.88c-0.576,0.96-1.404,1.728-2.484,2.304
	c-1.056,0.576-2.292,0.864-3.708,0.864c-1.655,0-3.155-0.42-4.5-1.261c-1.344-0.863-2.412-2.075-3.204-3.635
	C566.665,35.808,566.281,33.984,566.281,31.92z M581.329,31.956c0-1.536-0.433-2.748-1.296-3.636
	c-0.84-0.888-1.872-1.332-3.096-1.332c-1.225,0-2.269,0.444-3.133,1.332c-0.84,0.864-1.26,2.064-1.26,3.6s0.42,2.76,1.26,3.672
	c0.864,0.889,1.908,1.332,3.133,1.332c1.224,0,2.256-0.443,3.096-1.332C580.896,34.704,581.329,33.492,581.329,31.956z"/>
<path fill="#9DFF88" d="M273.374,42l-5.256-9.54h-1.476V42h-6.156V16.728h10.332c1.992,0,3.684,0.348,5.076,1.044
	c1.416,0.696,2.472,1.656,3.168,2.88c0.696,1.2,1.044,2.544,1.044,4.032c0,1.68-0.48,3.18-1.44,4.5
	c-0.936,1.32-2.328,2.256-4.176,2.808L280.322,42H273.374z M266.642,28.104h3.816c1.128,0,1.968-0.276,2.52-0.828
	c0.576-0.552,0.864-1.332,0.864-2.34c0-0.96-0.288-1.716-0.864-2.268c-0.552-0.552-1.392-0.828-2.52-0.828h-3.816V28.104z
	 M302.906,31.632c0,0.576-0.036,1.176-0.108,1.8h-13.932c0.096,1.248,0.492,2.208,1.188,2.88c0.72,0.647,1.596,0.972,2.628,0.972
	c1.536,0,2.604-0.648,3.204-1.944h6.552c-0.336,1.32-0.948,2.508-1.836,3.564c-0.864,1.056-1.956,1.884-3.276,2.484
	c-1.32,0.6-2.796,0.899-4.428,0.899c-1.968,0-3.72-0.42-5.256-1.261c-1.536-0.84-2.736-2.039-3.6-3.6
	c-0.864-1.56-1.296-3.384-1.296-5.472s0.42-3.912,1.26-5.472c0.864-1.56,2.064-2.76,3.6-3.6c1.536-0.84,3.3-1.26,5.292-1.26
	c1.944,0,3.672,0.408,5.184,1.224c1.512,0.816,2.688,1.98,3.528,3.492C302.474,27.852,302.906,29.616,302.906,31.632z
	 M296.606,30.012c0-1.056-0.36-1.896-1.08-2.52c-0.72-0.624-1.62-0.936-2.7-0.936c-1.032,0-1.908,0.3-2.628,0.9
	c-0.696,0.6-1.128,1.452-1.296,2.556H296.606z M304.93,31.92c0-2.064,0.384-3.876,1.152-5.436c0.792-1.56,1.86-2.76,3.204-3.6
	c1.344-0.84,2.844-1.26,4.5-1.26c1.416,0,2.651,0.288,3.708,0.864c1.08,0.576,1.908,1.332,2.483,2.268v-2.844h6.156V42h-6.156
	v-2.844c-0.6,0.936-1.439,1.691-2.52,2.268c-1.056,0.576-2.292,0.864-3.708,0.864c-1.632,0-3.12-0.42-4.464-1.261
	c-1.344-0.863-2.412-2.075-3.204-3.635C305.314,35.808,304.93,33.984,304.93,31.92z M319.978,31.956
	c0-1.536-0.432-2.748-1.296-3.636c-0.84-0.888-1.872-1.332-3.096-1.332s-2.268,0.444-3.132,1.332c-0.84,0.864-1.26,2.064-1.26,3.6
	s0.42,2.76,1.26,3.672c0.864,0.889,1.908,1.332,3.132,1.332s2.256-0.443,3.096-1.332C319.546,34.704,319.978,33.492,319.978,31.956z
	 M329.363,31.92c0-2.064,0.384-3.876,1.151-5.436c0.792-1.56,1.86-2.76,3.204-3.6c1.344-0.84,2.844-1.26,4.5-1.26
	c1.32,0,2.521,0.276,3.601,0.828c1.104,0.552,1.968,1.296,2.592,2.232V15.36h6.156V42h-6.156v-2.88
	c-0.576,0.96-1.404,1.728-2.484,2.304c-1.056,0.576-2.292,0.864-3.708,0.864c-1.656,0-3.156-0.42-4.5-1.261
	c-1.344-0.863-2.412-2.075-3.204-3.635C329.747,35.808,329.363,33.984,329.363,31.92z M344.411,31.956
	c0-1.536-0.433-2.748-1.296-3.636c-0.84-0.888-1.872-1.332-3.097-1.332c-1.224,0-2.268,0.444-3.132,1.332
	c-0.84,0.864-1.26,2.064-1.26,3.6s0.42,2.76,1.26,3.672c0.864,0.889,1.908,1.332,3.132,1.332c1.225,0,2.257-0.443,3.097-1.332
	C343.979,34.704,344.411,33.492,344.411,31.956z M375.541,21.912l-12.6,29.628h-6.624l4.607-10.224l-8.172-19.404h6.876
	l4.645,12.564l4.607-12.564H375.541z"/>
<g>
	<rect x="4" y="63" fill="#FFB1AB" width="586" height="2"/>
</g>
</svg>
