<svg width="1069" height="71" viewBox="0 0 1069 71" fill="none" xmlns="http://www.w3.org/2000/svg">
<path d="M33.133 42H26.977L16.681 26.412V42H10.525V16.728H16.681L26.977 32.388V16.728H33.133V42ZM36.3713 31.92C36.3713 29.856 36.7553 28.044 37.5233 26.484C38.3153 24.924 39.3833 23.724 40.7273 22.884C42.0713 22.044 43.5713 21.624 45.2273 21.624C46.6433 21.624 47.8793 21.912 48.9353 22.488C50.0153 23.064 50.8433 23.82 51.4193 24.756V21.912H57.5753V42H51.4193V39.156C50.8193 40.092 49.9793 40.848 48.8993 41.424C47.8433 42 46.6073 42.288 45.1913 42.288C43.5593 42.288 42.0713 41.868 40.7273 41.028C39.3833 40.164 38.3153 38.952 37.5233 37.392C36.7553 35.808 36.3713 33.984 36.3713 31.92ZM51.4193 31.956C51.4193 30.42 50.9873 29.208 50.1233 28.32C49.2833 27.432 48.2513 26.988 47.0273 26.988C45.8033 26.988 44.7593 27.432 43.8953 28.32C43.0553 29.184 42.6353 30.384 42.6353 31.92C42.6353 33.456 43.0553 34.68 43.8953 35.592C44.7593 36.48 45.8033 36.924 47.0273 36.924C48.2513 36.924 49.2833 36.48 50.1233 35.592C50.9873 34.704 51.4193 33.492 51.4193 31.956ZM73.2249 36.78V42H70.0929C67.8609 42 66.1209 41.46 64.8729 40.38C63.6249 39.276 63.0009 37.488 63.0009 35.016V27.024H60.5529V21.912H63.0009V17.016H69.1569V21.912H73.1889V27.024H69.1569V35.088C69.1569 35.688 69.3009 36.12 69.5889 36.384C69.8769 36.648 70.3569 36.78 71.0289 36.78H73.2249ZM79.7499 19.824C78.6699 19.824 77.7819 19.512 77.0859 18.888C76.4139 18.24 76.0779 17.448 76.0779 16.512C76.0779 15.552 76.4139 14.76 77.0859 14.136C77.7819 13.488 78.6699 13.164 79.7499 13.164C80.8059 13.164 81.6699 13.488 82.3419 14.136C83.0379 14.76 83.3859 15.552 83.3859 16.512C83.3859 17.448 83.0379 18.24 82.3419 18.888C81.6699 19.512 80.8059 19.824 79.7499 19.824ZM82.8099 21.912V42H76.6539V21.912H82.8099ZM96.4151 42.288C94.4471 42.288 92.6711 41.868 91.0871 41.028C89.5271 40.188 88.2911 38.988 87.3791 37.428C86.4911 35.868 86.0471 34.044 86.0471 31.956C86.0471 29.892 86.5031 28.08 87.4151 26.52C88.3271 24.936 89.5751 23.724 91.1591 22.884C92.7431 22.044 94.5191 21.624 96.4871 21.624C98.4551 21.624 100.231 22.044 101.815 22.884C103.399 23.724 104.647 24.936 105.559 26.52C106.471 28.08 106.927 29.892 106.927 31.956C106.927 34.02 106.459 35.844 105.523 37.428C104.611 38.988 103.351 40.188 101.743 41.028C100.159 41.868 98.3831 42.288 96.4151 42.288ZM96.4151 36.96C97.5911 36.96 98.5871 36.528 99.4031 35.664C100.243 34.8 100.663 33.564 100.663 31.956C100.663 30.348 100.255 29.112 99.4391 28.248C98.6471 27.384 97.6631 26.952 96.4871 26.952C95.2871 26.952 94.2911 27.384 93.4991 28.248C92.7071 29.088 92.3111 30.324 92.3111 31.956C92.3111 33.564 92.6951 34.8 93.4631 35.664C94.2551 36.528 95.2391 36.96 96.4151 36.96ZM122.433 21.696C124.785 21.696 126.657 22.464 128.049 24C129.465 25.512 130.173 27.6 130.173 30.264V42H124.053V31.092C124.053 29.748 123.705 28.704 123.009 27.96C122.313 27.216 121.377 26.844 120.201 26.844C119.025 26.844 118.089 27.216 117.393 27.96C116.697 28.704 116.349 29.748 116.349 31.092V42H110.193V21.912H116.349V24.576C116.973 23.688 117.813 22.992 118.869 22.488C119.925 21.96 121.113 21.696 122.433 21.696ZM133.227 31.92C133.227 29.856 133.611 28.044 134.379 26.484C135.171 24.924 136.239 23.724 137.583 22.884C138.927 22.044 140.427 21.624 142.083 21.624C143.499 21.624 144.735 21.912 145.791 22.488C146.871 23.064 147.699 23.82 148.275 24.756V21.912H154.431V42H148.275V39.156C147.675 40.092 146.835 40.848 145.755 41.424C144.699 42 143.463 42.288 142.047 42.288C140.415 42.288 138.927 41.868 137.583 41.028C136.239 40.164 135.171 38.952 134.379 37.392C133.611 35.808 133.227 33.984 133.227 31.92ZM148.275 31.956C148.275 30.42 147.843 29.208 146.979 28.32C146.139 27.432 145.107 26.988 143.883 26.988C142.659 26.988 141.615 27.432 140.751 28.32C139.911 29.184 139.491 30.384 139.491 31.92C139.491 33.456 139.911 34.68 140.751 35.592C141.615 36.48 142.659 36.924 143.883 36.924C145.107 36.924 146.139 36.48 146.979 35.592C147.843 34.704 148.275 33.492 148.275 31.956ZM165.04 15.36V42H158.884V15.36H165.04ZM193.906 24.72C193.45 23.88 192.79 23.244 191.926 22.812C191.086 22.356 190.09 22.128 188.938 22.128C186.946 22.128 185.35 22.788 184.15 24.108C182.95 25.404 182.35 27.144 182.35 29.328C182.35 31.656 182.974 33.48 184.222 34.8C185.494 36.096 187.234 36.744 189.442 36.744C190.954 36.744 192.226 36.36 193.258 35.592C194.314 34.824 195.082 33.72 195.562 32.28H187.75V27.744H201.142V33.468C200.686 35.004 199.906 36.432 198.802 37.752C197.722 39.072 196.342 40.14 194.662 40.956C192.982 41.772 191.086 42.18 188.974 42.18C186.478 42.18 184.246 41.64 182.278 40.56C180.334 39.456 178.81 37.932 177.706 35.988C176.626 34.044 176.086 31.824 176.086 29.328C176.086 26.832 176.626 24.612 177.706 22.668C178.81 20.7 180.334 19.176 182.278 18.096C184.222 16.992 186.442 16.44 188.938 16.44C191.962 16.44 194.506 17.172 196.57 18.636C198.658 20.1 200.038 22.128 200.71 24.72H193.906ZM207.648 19.824C206.568 19.824 205.68 19.512 204.984 18.888C204.312 18.24 203.976 17.448 203.976 16.512C203.976 15.552 204.312 14.76 204.984 14.136C205.68 13.488 206.568 13.164 207.648 13.164C208.704 13.164 209.568 13.488 210.24 14.136C210.936 14.76 211.284 15.552 211.284 16.512C211.284 17.448 210.936 18.24 210.24 18.888C209.568 19.512 208.704 19.824 207.648 19.824ZM210.708 21.912V42H204.552V21.912H210.708ZM222.802 21.624C224.218 21.624 225.454 21.912 226.51 22.488C227.59 23.064 228.418 23.82 228.994 24.756V21.912H235.15V41.964C235.15 43.812 234.778 45.48 234.034 46.968C233.314 48.48 232.198 49.68 230.686 50.568C229.198 51.456 227.338 51.9 225.106 51.9C222.13 51.9 219.718 51.192 217.87 49.776C216.022 48.384 214.966 46.488 214.702 44.088H220.786C220.978 44.856 221.434 45.456 222.154 45.888C222.874 46.344 223.762 46.572 224.818 46.572C226.09 46.572 227.098 46.2 227.842 45.456C228.61 44.736 228.994 43.572 228.994 41.964V39.12C228.394 40.056 227.566 40.824 226.51 41.424C225.454 42 224.218 42.288 222.802 42.288C221.146 42.288 219.646 41.868 218.302 41.028C216.958 40.164 215.89 38.952 215.098 37.392C214.33 35.808 213.946 33.984 213.946 31.92C213.946 29.856 214.33 28.044 215.098 26.484C215.89 24.924 216.958 23.724 218.302 22.884C219.646 22.044 221.146 21.624 222.802 21.624ZM228.994 31.956C228.994 30.42 228.562 29.208 227.698 28.32C226.858 27.432 225.826 26.988 224.602 26.988C223.378 26.988 222.334 27.432 221.47 28.32C220.63 29.184 220.21 30.384 220.21 31.92C220.21 33.456 220.63 34.68 221.47 35.592C222.334 36.48 223.378 36.924 224.602 36.924C225.826 36.924 226.858 36.48 227.698 35.592C228.562 34.704 228.994 33.492 228.994 31.956ZM255.083 26.808V31.92H239.243V26.808H255.083ZM394.864 16.728C397.528 16.728 399.856 17.256 401.848 18.312C403.84 19.368 405.376 20.856 406.456 22.776C407.56 24.672 408.112 26.868 408.112 29.364C408.112 31.836 407.56 34.032 406.456 35.952C405.376 37.872 403.828 39.36 401.812 40.416C399.82 41.472 397.504 42 394.864 42H385.396V16.728H394.864ZM394.468 36.672C396.796 36.672 398.608 36.036 399.904 34.764C401.2 33.492 401.848 31.692 401.848 29.364C401.848 27.036 401.2 25.224 399.904 23.928C398.608 22.632 396.796 21.984 394.468 21.984H391.552V36.672H394.468ZM410.328 31.92C410.328 29.856 410.712 28.044 411.48 26.484C412.272 24.924 413.34 23.724 414.684 22.884C416.028 22.044 417.528 21.624 419.184 21.624C420.6 21.624 421.836 21.912 422.892 22.488C423.972 23.064 424.8 23.82 425.376 24.756V21.912H431.532V42H425.376V39.156C424.776 40.092 423.936 40.848 422.856 41.424C421.8 42 420.564 42.288 419.148 42.288C417.516 42.288 416.028 41.868 414.684 41.028C413.34 40.164 412.272 38.952 411.48 37.392C410.712 35.808 410.328 33.984 410.328 31.92ZM425.376 31.956C425.376 30.42 424.944 29.208 424.08 28.32C423.24 27.432 422.208 26.988 420.984 26.988C419.76 26.988 418.716 27.432 417.852 28.32C417.012 29.184 416.592 30.384 416.592 31.92C416.592 33.456 417.012 34.68 417.852 35.592C418.716 36.48 419.76 36.924 420.984 36.924C422.208 36.924 423.24 36.48 424.08 35.592C424.944 34.704 425.376 33.492 425.376 31.956ZM444.158 42.288C442.406 42.288 440.846 41.988 439.478 41.388C438.11 40.788 437.03 39.972 436.238 38.94C435.446 37.884 435.002 36.708 434.906 35.412H440.99C441.062 36.108 441.386 36.672 441.962 37.104C442.538 37.536 443.246 37.752 444.086 37.752C444.854 37.752 445.442 37.608 445.85 37.32C446.282 37.008 446.498 36.612 446.498 36.132C446.498 35.556 446.198 35.136 445.598 34.872C444.998 34.584 444.026 34.272 442.682 33.936C441.242 33.6 440.042 33.252 439.082 32.892C438.122 32.508 437.294 31.92 436.598 31.128C435.902 30.312 435.554 29.22 435.554 27.852C435.554 26.7 435.866 25.656 436.49 24.72C437.138 23.76 438.074 23.004 439.298 22.452C440.546 21.9 442.022 21.624 443.726 21.624C446.246 21.624 448.226 22.248 449.666 23.496C451.13 24.744 451.97 26.4 452.186 28.464H446.498C446.402 27.768 446.09 27.216 445.562 26.808C445.058 26.4 444.386 26.196 443.546 26.196C442.826 26.196 442.274 26.34 441.89 26.628C441.506 26.892 441.314 27.264 441.314 27.744C441.314 28.32 441.614 28.752 442.214 29.04C442.838 29.328 443.798 29.616 445.094 29.904C446.582 30.288 447.794 30.672 448.73 31.056C449.666 31.416 450.482 32.016 451.178 32.856C451.898 33.672 452.27 34.776 452.294 36.168C452.294 37.344 451.958 38.4 451.286 39.336C450.638 40.248 449.69 40.968 448.442 41.496C447.218 42.024 445.79 42.288 444.158 42.288ZM468.408 21.696C470.712 21.696 472.56 22.464 473.952 24C475.344 25.512 476.04 27.6 476.04 30.264V42H469.92V31.092C469.92 29.748 469.572 28.704 468.876 27.96C468.18 27.216 467.244 26.844 466.068 26.844C464.892 26.844 463.956 27.216 463.26 27.96C462.564 28.704 462.216 29.748 462.216 31.092V42H456.06V15.36H462.216V24.612C462.84 23.724 463.692 23.016 464.772 22.488C465.852 21.96 467.064 21.696 468.408 21.696ZM486.474 24.756C487.05 23.82 487.878 23.064 488.958 22.488C490.038 21.912 491.274 21.624 492.666 21.624C494.322 21.624 495.822 22.044 497.166 22.884C498.51 23.724 499.566 24.924 500.334 26.484C501.126 28.044 501.522 29.856 501.522 31.92C501.522 33.984 501.126 35.808 500.334 37.392C499.566 38.952 498.51 40.164 497.166 41.028C495.822 41.868 494.322 42.288 492.666 42.288C491.25 42.288 490.014 42.012 488.958 41.46C487.902 40.884 487.074 40.128 486.474 39.192V42H480.318V15.36H486.474V24.756ZM495.258 31.92C495.258 30.384 494.826 29.184 493.962 28.32C493.122 27.432 492.078 26.988 490.83 26.988C489.606 26.988 488.562 27.432 487.698 28.32C486.858 29.208 486.438 30.42 486.438 31.956C486.438 33.492 486.858 34.704 487.698 35.592C488.562 36.48 489.606 36.924 490.83 36.924C492.054 36.924 493.098 36.48 493.962 35.592C494.826 34.68 495.258 33.456 495.258 31.92ZM513.896 42.288C511.928 42.288 510.152 41.868 508.568 41.028C507.008 40.188 505.772 38.988 504.86 37.428C503.972 35.868 503.528 34.044 503.528 31.956C503.528 29.892 503.984 28.08 504.896 26.52C505.808 24.936 507.056 23.724 508.64 22.884C510.224 22.044 512 21.624 513.968 21.624C515.936 21.624 517.712 22.044 519.296 22.884C520.88 23.724 522.128 24.936 523.04 26.52C523.952 28.08 524.408 29.892 524.408 31.956C524.408 34.02 523.94 35.844 523.004 37.428C522.092 38.988 520.832 40.188 519.224 41.028C517.64 41.868 515.864 42.288 513.896 42.288ZM513.896 36.96C515.072 36.96 516.068 36.528 516.884 35.664C517.724 34.8 518.144 33.564 518.144 31.956C518.144 30.348 517.736 29.112 516.92 28.248C516.128 27.384 515.144 26.952 513.968 26.952C512.768 26.952 511.772 27.384 510.98 28.248C510.188 29.088 509.792 30.324 509.792 31.956C509.792 33.564 510.176 34.8 510.944 35.664C511.736 36.528 512.72 36.96 513.896 36.96ZM526.449 31.92C526.449 29.856 526.833 28.044 527.601 26.484C528.393 24.924 529.461 23.724 530.805 22.884C532.149 22.044 533.649 21.624 535.305 21.624C536.721 21.624 537.957 21.912 539.013 22.488C540.093 23.064 540.921 23.82 541.497 24.756V21.912H547.653V42H541.497V39.156C540.897 40.092 540.057 40.848 538.977 41.424C537.921 42 536.685 42.288 535.269 42.288C533.637 42.288 532.149 41.868 530.805 41.028C529.461 40.164 528.393 38.952 527.601 37.392C526.833 35.808 526.449 33.984 526.449 31.92ZM541.497 31.956C541.497 30.42 541.065 29.208 540.201 28.32C539.361 27.432 538.329 26.988 537.105 26.988C535.881 26.988 534.837 27.432 533.973 28.32C533.133 29.184 532.713 30.384 532.713 31.92C532.713 33.456 533.133 34.68 533.973 35.592C534.837 36.48 535.881 36.924 537.105 36.924C538.329 36.924 539.361 36.48 540.201 35.592C541.065 34.704 541.497 33.492 541.497 31.956ZM558.263 25.26C558.983 24.156 559.883 23.292 560.963 22.668C562.043 22.02 563.243 21.696 564.563 21.696V28.212H562.871C561.335 28.212 560.183 28.548 559.415 29.22C558.647 29.868 558.263 31.02 558.263 32.676V42H552.107V21.912H558.263V25.26ZM566.281 31.92C566.281 29.856 566.665 28.044 567.433 26.484C568.225 24.924 569.293 23.724 570.637 22.884C571.981 22.044 573.481 21.624 575.137 21.624C576.457 21.624 577.657 21.9 578.737 22.452C579.841 23.004 580.705 23.748 581.329 24.684V15.36H587.485V42H581.329V39.12C580.753 40.08 579.925 40.848 578.845 41.424C577.789 42 576.553 42.288 575.137 42.288C573.481 42.288 571.981 41.868 570.637 41.028C569.293 40.164 568.225 38.952 567.433 37.392C566.665 35.808 566.281 33.984 566.281 31.92ZM581.329 31.956C581.329 30.42 580.897 29.208 580.033 28.32C579.193 27.432 578.161 26.988 576.937 26.988C575.713 26.988 574.669 27.432 573.805 28.32C572.965 29.184 572.545 30.384 572.545 31.92C572.545 33.456 572.965 34.68 573.805 35.592C574.669 36.48 575.713 36.924 576.937 36.924C578.161 36.924 579.193 36.48 580.033 35.592C580.897 34.704 581.329 33.492 581.329 31.956Z" fill="white"/>
<path d="M273.374 42L268.118 32.46H266.642V42H260.486V16.728H270.818C272.81 16.728 274.502 17.076 275.894 17.772C277.31 18.468 278.366 19.428 279.062 20.652C279.758 21.852 280.106 23.196 280.106 24.684C280.106 26.364 279.626 27.864 278.666 29.184C277.73 30.504 276.338 31.44 274.49 31.992L280.322 42H273.374ZM266.642 28.104H270.458C271.586 28.104 272.426 27.828 272.978 27.276C273.554 26.724 273.842 25.944 273.842 24.936C273.842 23.976 273.554 23.22 272.978 22.668C272.426 22.116 271.586 21.84 270.458 21.84H266.642V28.104ZM302.906 31.632C302.906 32.208 302.87 32.808 302.798 33.432H288.866C288.962 34.68 289.358 35.64 290.054 36.312C290.774 36.96 291.65 37.284 292.682 37.284C294.218 37.284 295.286 36.636 295.886 35.34H302.438C302.102 36.66 301.49 37.848 300.602 38.904C299.738 39.96 298.646 40.788 297.326 41.388C296.006 41.988 294.53 42.288 292.898 42.288C290.93 42.288 289.178 41.868 287.642 41.028C286.106 40.188 284.906 38.988 284.042 37.428C283.178 35.868 282.746 34.044 282.746 31.956C282.746 29.868 283.166 28.044 284.006 26.484C284.87 24.924 286.07 23.724 287.606 22.884C289.142 22.044 290.906 21.624 292.898 21.624C294.842 21.624 296.57 22.032 298.082 22.848C299.594 23.664 300.77 24.828 301.61 26.34C302.474 27.852 302.906 29.616 302.906 31.632ZM296.606 30.012C296.606 28.956 296.246 28.116 295.526 27.492C294.806 26.868 293.906 26.556 292.826 26.556C291.794 26.556 290.918 26.856 290.198 27.456C289.502 28.056 289.07 28.908 288.902 30.012H296.606ZM304.93 31.92C304.93 29.856 305.314 28.044 306.082 26.484C306.874 24.924 307.942 23.724 309.286 22.884C310.63 22.044 312.13 21.624 313.786 21.624C315.202 21.624 316.438 21.912 317.494 22.488C318.574 23.064 319.402 23.82 319.978 24.756V21.912H326.134V42H319.978V39.156C319.378 40.092 318.538 40.848 317.458 41.424C316.402 42 315.166 42.288 313.75 42.288C312.118 42.288 310.63 41.868 309.286 41.028C307.942 40.164 306.874 38.952 306.082 37.392C305.314 35.808 304.93 33.984 304.93 31.92ZM319.978 31.956C319.978 30.42 319.546 29.208 318.682 28.32C317.842 27.432 316.81 26.988 315.586 26.988C314.362 26.988 313.318 27.432 312.454 28.32C311.614 29.184 311.194 30.384 311.194 31.92C311.194 33.456 311.614 34.68 312.454 35.592C313.318 36.48 314.362 36.924 315.586 36.924C316.81 36.924 317.842 36.48 318.682 35.592C319.546 34.704 319.978 33.492 319.978 31.956ZM329.363 31.92C329.363 29.856 329.747 28.044 330.515 26.484C331.307 24.924 332.375 23.724 333.719 22.884C335.063 22.044 336.563 21.624 338.219 21.624C339.539 21.624 340.739 21.9 341.819 22.452C342.923 23.004 343.787 23.748 344.411 24.684V15.36H350.567V42H344.411V39.12C343.835 40.08 343.007 40.848 341.927 41.424C340.871 42 339.635 42.288 338.219 42.288C336.563 42.288 335.063 41.868 333.719 41.028C332.375 40.164 331.307 38.952 330.515 37.392C329.747 35.808 329.363 33.984 329.363 31.92ZM344.411 31.956C344.411 30.42 343.979 29.208 343.115 28.32C342.275 27.432 341.243 26.988 340.019 26.988C338.795 26.988 337.751 27.432 336.887 28.32C336.047 29.184 335.627 30.384 335.627 31.92C335.627 33.456 336.047 34.68 336.887 35.592C337.751 36.48 338.795 36.924 340.019 36.924C341.243 36.924 342.275 36.48 343.115 35.592C343.979 34.704 344.411 33.492 344.411 31.956ZM375.541 21.912L362.941 51.54H356.317L360.925 41.316L352.753 21.912H359.629L364.273 34.476L368.881 21.912H375.541Z" fill="#9DFF88"/>
<g filter="url(#filter0_d)">
<rect x="4" y="63" width="586" height="2" fill="#FFB1AB"/>
</g>
<path d="M637.592 28.504C637.992 27.88 638.544 27.376 639.248 26.992C639.952 26.608 640.776 26.416 641.72 26.416C642.824 26.416 643.824 26.696 644.72 27.256C645.616 27.816 646.32 28.616 646.832 29.656C647.36 30.696 647.624 31.904 647.624 33.28C647.624 34.656 647.36 35.872 646.832 36.928C646.32 37.968 645.616 38.776 644.72 39.352C643.824 39.912 642.824 40.192 641.72 40.192C640.792 40.192 639.968 40 639.248 39.616C638.544 39.232 637.992 38.736 637.592 38.128V46.384H633.488V26.608H637.592V28.504ZM643.448 33.28C643.448 32.256 643.16 31.456 642.584 30.88C642.024 30.288 641.328 29.992 640.496 29.992C639.68 29.992 638.984 30.288 638.408 30.88C637.848 31.472 637.568 32.28 637.568 33.304C637.568 34.328 637.848 35.136 638.408 35.728C638.984 36.32 639.68 36.616 640.496 36.616C641.312 36.616 642.008 36.32 642.584 35.728C643.16 35.12 643.448 34.304 643.448 33.28ZM655.873 40.192C654.561 40.192 653.377 39.912 652.321 39.352C651.281 38.792 650.457 37.992 649.849 36.952C649.257 35.912 648.961 34.696 648.961 33.304C648.961 31.928 649.265 30.72 649.873 29.68C650.481 28.624 651.313 27.816 652.369 27.256C653.425 26.696 654.609 26.416 655.921 26.416C657.233 26.416 658.417 26.696 659.473 27.256C660.529 27.816 661.361 28.624 661.969 29.68C662.577 30.72 662.881 31.928 662.881 33.304C662.881 34.68 662.569 35.896 661.945 36.952C661.337 37.992 660.497 38.792 659.425 39.352C658.369 39.912 657.185 40.192 655.873 40.192ZM655.873 36.64C656.657 36.64 657.321 36.352 657.865 35.776C658.425 35.2 658.705 34.376 658.705 33.304C658.705 32.232 658.433 31.408 657.889 30.832C657.361 30.256 656.705 29.968 655.921 29.968C655.121 29.968 654.457 30.256 653.929 30.832C653.401 31.392 653.137 32.216 653.137 33.304C653.137 34.376 653.393 35.2 653.905 35.776C654.433 36.352 655.089 36.64 655.873 36.64ZM684.282 26.608L680.658 40H676.122L674.01 31.312L671.826 40H667.314L663.666 26.608H667.77L669.666 36.184L671.922 26.608H676.266L678.546 36.136L680.418 26.608H684.282ZM698.471 33.088C698.471 33.472 698.447 33.872 698.399 34.288H689.111C689.175 35.12 689.439 35.76 689.903 36.208C690.383 36.64 690.967 36.856 691.655 36.856C692.679 36.856 693.391 36.424 693.791 35.56H698.159C697.935 36.44 697.527 37.232 696.935 37.936C696.359 38.64 695.631 39.192 694.751 39.592C693.871 39.992 692.887 40.192 691.799 40.192C690.487 40.192 689.319 39.912 688.295 39.352C687.271 38.792 686.471 37.992 685.895 36.952C685.319 35.912 685.031 34.696 685.031 33.304C685.031 31.912 685.311 30.696 685.871 29.656C686.447 28.616 687.247 27.816 688.271 27.256C689.295 26.696 690.471 26.416 691.799 26.416C693.095 26.416 694.247 26.688 695.255 27.232C696.263 27.776 697.047 28.552 697.607 29.56C698.183 30.568 698.471 31.744 698.471 33.088ZM694.271 32.008C694.271 31.304 694.031 30.744 693.551 30.328C693.071 29.912 692.471 29.704 691.751 29.704C691.063 29.704 690.479 29.904 689.999 30.304C689.535 30.704 689.247 31.272 689.135 32.008H694.271ZM704.74 28.84C705.22 28.104 705.82 27.528 706.54 27.112C707.26 26.68 708.06 26.464 708.94 26.464V30.808H707.812C706.788 30.808 706.02 31.032 705.508 31.48C704.996 31.912 704.74 32.68 704.74 33.784V40H700.636V26.608H704.74V28.84ZM723.526 33.088C723.526 33.472 723.502 33.872 723.454 34.288H714.166C714.23 35.12 714.494 35.76 714.958 36.208C715.438 36.64 716.022 36.856 716.71 36.856C717.734 36.856 718.446 36.424 718.846 35.56H723.214C722.99 36.44 722.582 37.232 721.99 37.936C721.414 38.64 720.686 39.192 719.806 39.592C718.926 39.992 717.942 40.192 716.854 40.192C715.542 40.192 714.374 39.912 713.35 39.352C712.326 38.792 711.526 37.992 710.95 36.952C710.374 35.912 710.086 34.696 710.086 33.304C710.086 31.912 710.366 30.696 710.926 29.656C711.502 28.616 712.302 27.816 713.326 27.256C714.35 26.696 715.526 26.416 716.854 26.416C718.15 26.416 719.302 26.688 720.31 27.232C721.318 27.776 722.102 28.552 722.662 29.56C723.238 30.568 723.526 31.744 723.526 33.088ZM719.326 32.008C719.326 31.304 719.086 30.744 718.606 30.328C718.126 29.912 717.526 29.704 716.806 29.704C716.118 29.704 715.534 29.904 715.054 30.304C714.59 30.704 714.302 31.272 714.19 32.008H719.326ZM724.875 33.28C724.875 31.904 725.131 30.696 725.643 29.656C726.171 28.616 726.883 27.816 727.779 27.256C728.675 26.696 729.675 26.416 730.779 26.416C731.659 26.416 732.459 26.6 733.179 26.968C733.915 27.336 734.491 27.832 734.907 28.456V22.24H739.011V40H734.907V38.08C734.523 38.72 733.971 39.232 733.251 39.616C732.547 40 731.723 40.192 730.779 40.192C729.675 40.192 728.675 39.912 727.779 39.352C726.883 38.776 726.171 37.968 725.643 36.928C725.131 35.872 724.875 34.656 724.875 33.28ZM734.907 33.304C734.907 32.28 734.619 31.472 734.043 30.88C733.483 30.288 732.795 29.992 731.979 29.992C731.163 29.992 730.467 30.288 729.891 30.88C729.331 31.456 729.051 32.256 729.051 33.28C729.051 34.304 729.331 35.12 729.891 35.728C730.467 36.32 731.163 36.616 731.979 36.616C732.795 36.616 733.483 36.32 734.043 35.728C734.619 35.136 734.907 34.328 734.907 33.304ZM751.17 28.504C751.554 27.88 752.106 27.376 752.826 26.992C753.546 26.608 754.37 26.416 755.298 26.416C756.402 26.416 757.402 26.696 758.298 27.256C759.194 27.816 759.898 28.616 760.41 29.656C760.938 30.696 761.202 31.904 761.202 33.28C761.202 34.656 760.938 35.872 760.41 36.928C759.898 37.968 759.194 38.776 758.298 39.352C757.402 39.912 756.402 40.192 755.298 40.192C754.354 40.192 753.53 40.008 752.826 39.64C752.122 39.256 751.57 38.752 751.17 38.128V40H747.066V22.24H751.17V28.504ZM757.026 33.28C757.026 32.256 756.738 31.456 756.162 30.88C755.602 30.288 754.906 29.992 754.074 29.992C753.258 29.992 752.562 30.288 751.986 30.88C751.426 31.472 751.146 32.28 751.146 33.304C751.146 34.328 751.426 35.136 751.986 35.728C752.562 36.32 753.258 36.616 754.074 36.616C754.89 36.616 755.586 36.32 756.162 35.728C756.738 35.12 757.026 34.304 757.026 33.28ZM777.035 26.608L768.635 46.36H764.219L767.291 39.544L761.843 26.608H766.427L769.523 34.984L772.595 26.608H777.035ZM787.709 26.44V29.848H793.205V33.016H787.709V36.712H793.925V40H783.605V23.152H793.925V26.44H787.709ZM806.91 40L803.478 34.84L800.454 40H795.798L801.198 31.432L795.678 23.152H800.454L803.838 28.24L806.814 23.152H811.47L806.118 31.648L811.686 40H806.91ZM824.234 37.024H817.946L816.938 40H812.642L818.738 23.152H823.49L829.586 40H825.242L824.234 37.024ZM823.178 33.856L821.09 27.688L819.026 33.856H823.178ZM850.521 23.152V40H846.417V29.896L842.649 40H839.337L835.545 29.872V40H831.441V23.152H836.289L841.017 34.816L845.697 23.152H850.521ZM866.312 28.576C866.312 29.552 866.088 30.448 865.64 31.264C865.192 32.064 864.504 32.712 863.576 33.208C862.648 33.704 861.496 33.952 860.12 33.952H857.576V40H853.472V23.152H860.12C861.464 23.152 862.6 23.384 863.528 23.848C864.456 24.312 865.152 24.952 865.616 25.768C866.08 26.584 866.312 27.52 866.312 28.576ZM859.808 30.688C860.592 30.688 861.176 30.504 861.56 30.136C861.944 29.768 862.136 29.248 862.136 28.576C862.136 27.904 861.944 27.384 861.56 27.016C861.176 26.648 860.592 26.464 859.808 26.464H857.576V30.688H859.808ZM872.553 36.832H877.929V40H868.449V23.152H872.553V36.832ZM883.99 26.44V29.848H889.486V33.016H883.99V36.712H890.206V40H879.886V23.152H890.206V26.44H883.99ZM910.797 28.576C910.797 29.552 910.573 30.448 910.125 31.264C909.677 32.064 908.989 32.712 908.061 33.208C907.133 33.704 905.981 33.952 904.605 33.952H902.061V40H897.957V23.152H904.605C905.949 23.152 907.085 23.384 908.013 23.848C908.941 24.312 909.637 24.952 910.101 25.768C910.565 26.584 910.797 27.52 910.797 28.576ZM904.293 30.688C905.077 30.688 905.661 30.504 906.045 30.136C906.429 29.768 906.621 29.248 906.621 28.576C906.621 27.904 906.429 27.384 906.045 27.016C905.661 26.648 905.077 26.464 904.293 26.464H902.061V30.688H904.293ZM923.421 37.024H917.133L916.125 40H911.829L917.925 23.152H922.677L928.773 40H924.429L923.421 37.024ZM922.365 33.856L920.277 27.688L918.213 33.856H922.365ZM939.221 40L935.717 33.64H934.733V40H930.629V23.152H937.517C938.845 23.152 939.973 23.384 940.901 23.848C941.845 24.312 942.549 24.952 943.013 25.768C943.477 26.568 943.709 27.464 943.709 28.456C943.709 29.576 943.389 30.576 942.749 31.456C942.125 32.336 941.197 32.96 939.965 33.328L943.853 40H939.221ZM934.733 30.736H937.277C938.029 30.736 938.589 30.552 938.957 30.184C939.341 29.816 939.533 29.296 939.533 28.624C939.533 27.984 939.341 27.48 938.957 27.112C938.589 26.744 938.029 26.56 937.277 26.56H934.733V30.736ZM958.405 23.152V26.44H953.941V40H949.837V26.44H945.373V23.152H958.405ZM975.537 40H971.433L964.569 29.608V40H960.465V23.152H964.569L971.433 33.592V23.152H975.537V40ZM982.615 26.44V29.848H988.111V33.016H982.615V36.712H988.831V40H978.511V23.152H988.831V26.44H982.615ZM1000.09 40L996.584 33.64H995.6V40H991.496V23.152H998.384C999.712 23.152 1000.84 23.384 1001.77 23.848C1002.71 24.312 1003.42 24.952 1003.88 25.768C1004.34 26.568 1004.58 27.464 1004.58 28.456C1004.58 29.576 1004.26 30.576 1003.62 31.456C1002.99 32.336 1002.06 32.96 1000.83 33.328L1004.72 40H1000.09ZM995.6 30.736H998.144C998.896 30.736 999.456 30.552 999.824 30.184C1000.21 29.816 1000.4 29.296 1000.4 28.624C1000.4 27.984 1000.21 27.48 999.824 27.112C999.456 26.744 998.896 26.56 998.144 26.56H995.6V30.736ZM1013.25 40.168C1012.02 40.168 1010.91 39.968 1009.94 39.568C1008.96 39.168 1008.18 38.576 1007.58 37.792C1007.01 37.008 1006.7 36.064 1006.67 34.96H1011.04C1011.1 35.584 1011.32 36.064 1011.69 36.4C1012.06 36.72 1012.54 36.88 1013.13 36.88C1013.74 36.88 1014.22 36.744 1014.57 36.472C1014.92 36.184 1015.1 35.792 1015.1 35.296C1015.1 34.88 1014.95 34.536 1014.66 34.264C1014.39 33.992 1014.05 33.768 1013.63 33.592C1013.23 33.416 1012.66 33.216 1011.9 32.992C1010.82 32.656 1009.93 32.32 1009.24 31.984C1008.55 31.648 1007.96 31.152 1007.46 30.496C1006.97 29.84 1006.72 28.984 1006.72 27.928C1006.72 26.36 1007.29 25.136 1008.42 24.256C1009.56 23.36 1011.04 22.912 1012.86 22.912C1014.72 22.912 1016.22 23.36 1017.35 24.256C1018.49 25.136 1019.1 26.368 1019.18 27.952H1014.74C1014.7 27.408 1014.5 26.984 1014.14 26.68C1013.77 26.36 1013.3 26.2 1012.72 26.2C1012.22 26.2 1011.82 26.336 1011.52 26.608C1011.22 26.864 1011.06 27.24 1011.06 27.736C1011.06 28.28 1011.32 28.704 1011.83 29.008C1012.34 29.312 1013.14 29.64 1014.23 29.992C1015.32 30.36 1016.2 30.712 1016.87 31.048C1017.56 31.384 1018.15 31.872 1018.65 32.512C1019.14 33.152 1019.39 33.976 1019.39 34.984C1019.39 35.944 1019.14 36.816 1018.65 37.6C1018.17 38.384 1017.46 39.008 1016.54 39.472C1015.61 39.936 1014.51 40.168 1013.25 40.168ZM1036.51 23.152V40H1032.41V33.064H1026.02V40H1021.92V23.152H1026.02V29.752H1032.41V23.152H1036.51ZM1043.58 23.152V40H1039.47V23.152H1043.58ZM1059.39 28.576C1059.39 29.552 1059.17 30.448 1058.72 31.264C1058.27 32.064 1057.58 32.712 1056.65 33.208C1055.73 33.704 1054.57 33.952 1053.2 33.952H1050.65V40H1046.55V23.152H1053.2C1054.54 23.152 1055.68 23.384 1056.61 23.848C1057.53 24.312 1058.23 24.952 1058.69 25.768C1059.16 26.584 1059.39 27.52 1059.39 28.576ZM1052.89 30.688C1053.67 30.688 1054.25 30.504 1054.64 30.136C1055.02 29.768 1055.21 29.248 1055.21 28.576C1055.21 27.904 1055.02 27.384 1054.64 27.016C1054.25 26.648 1053.67 26.464 1052.89 26.464H1050.65V30.688H1052.89Z" fill="white"/>
<defs>
<filter id="filter0_d" x="0" y="61" width="594" height="10" filterUnits="userSpaceOnUse" color-interpolation-filters="sRGB">
<feFlood flood-opacity="0" result="BackgroundImageFix"/>
<feColorMatrix in="SourceAlpha" type="matrix" values="0 0 0 0 0 0 0 0 0 0 0 0 0 0 0 0 0 0 127 0"/>
<feOffset dy="2"/>
<feGaussianBlur stdDeviation="2"/>
<feColorMatrix type="matrix" values="0 0 0 0 0 0 0 0 0 0 0 0 0 0 0 0 0 0 0.25 0"/>
<feBlend mode="normal" in2="BackgroundImageFix" result="effect1_dropShadow"/>
<feBlend mode="normal" in="SourceGraphic" in2="effect1_dropShadow" result="shape"/>
</filter>
</defs>
</svg>
