<svg width="24" height="24" viewBox="0 0 24 24" fill="none" xmlns="http://www.w3.org/2000/svg">
<path fill-rule="evenodd" clip-rule="evenodd" d="M9 16.9999L12 14.0599C11.61 14.0199 11.32 13.9999 11 13.9999C8.33 13.9999 3 15.3399 3 17.9999V19.9999H12L9 16.9999ZM11 11.9999C13.21 11.9999 15 10.2099 15 7.99994C15 5.78994 13.21 3.99994 11 3.99994C8.79 3.99994 7 5.78994 7 7.99994C7 10.2099 8.79 11.9999 11 11.9999Z" fill="white"/>
<path fill-rule="evenodd" clip-rule="evenodd" d="M15.47 20.4999L12 16.9999L13.4 15.5899L15.47 17.6699L20.6 12.4999L22 13.9099L15.47 20.4999Z" fill="white"/>
</svg>
