<svg width="24" height="24" viewBox="0 0 24 24" fill="none" xmlns="http://www.w3.org/2000/svg">
<path d="M18.551 3.82837L18.5332 3.81967L18.5409 3.83493L18.551 3.82837Z" fill="white"/>
<path d="M15.7664 3.17415V3.22363L15.8156 3.12479H15.6929L15.7664 3.17415Z" fill="white"/>
<path d="M14.7112 4.27876L14.6619 4.17975L14.6372 4.27876H14.7112Z" fill="white"/>
<path d="M14.5634 4.25409L14.5878 4.17975L14.4897 4.27883H14.5878L14.5387 4.35306L14.6369 4.30346L14.5634 4.25409Z" fill="white"/>
<path d="M18.4678 3.738L18.5661 3.6644L18.4434 3.68886L18.4678 3.738Z" fill="white"/>
<path d="M15.0795 4.05775L15.0293 4.03217V4.08321L15.0795 4.05775Z" fill="white"/>
<path d="M17.5353 3.98371L17.5604 4.00845L17.5103 3.90948L17.5353 3.98371Z" fill="white"/>
<path d="M14.8086 3.95901L14.8587 4.03272V3.98358L14.8086 3.95901Z" fill="white"/>
<path d="M14.981 3.68969H15.0792L15.0301 3.5414L14.981 3.68969Z" fill="white"/>
<path d="M14.4898 4.20438L14.3916 4.2301L14.4652 4.2557L14.4898 4.20438Z" fill="white"/>
<path d="M17.3876 4.15587L17.3382 4.03217L17.3135 4.08153L17.3876 4.15587Z" fill="white"/>
<path d="M5.62549 12.5783V12.8239L5.82195 13.1431V13.0203L5.62549 12.5783Z" fill="white"/>
<path d="M7.44238 8.72407H7.5161L7.56525 8.55093L7.44238 8.72407Z" fill="white"/>
<path d="M18.1247 4.05819L18.147 3.98257L18.0991 3.95737V3.98257L18.1247 4.05819Z" fill="white"/>
<path d="M16.3543 3.00018V3.05024L16.2574 3.02521L16.3074 3.14722L16.4044 3.19728L16.3606 3.19102L16.2323 3.17225L16.2574 3.24734L16.2073 3.29426L16.1823 3.24734L16.1573 3.39438L16.0853 3.24734L16.0353 3.27236L16.0853 3.14722L15.9383 3.24734L15.9133 3.29426L15.9633 3.34432L15.8632 3.39438L15.8382 3.27236H15.7913L15.8382 3.22231H15.7913L15.8382 3.17225L15.7662 3.22231L15.6912 3.19728V3.24734L15.6693 3.19728V3.24734L15.8163 3.31929L15.7162 3.39438L15.7412 3.46633L15.6693 3.51639L15.7162 3.6165H15.6192V3.73852L15.5441 3.66343L15.5692 3.56645L15.4722 3.59147V3.51639L15.3971 3.71349L15.4221 3.49136L15.4722 3.41941L15.3721 3.36935V3.6384L15.3001 3.6165L15.2501 3.71349L15.225 3.6384L15.175 3.68846L15.2 3.59147L15.103 3.68846L15.1531 3.71349L15.0061 3.78544L15.078 3.88556H15.1531L15.053 3.95751L15.2 4.00757L15.225 3.95751L15.2751 3.98254L15.175 4.08265L15.3001 4.12958H15.175L15.1281 4.05763L15.028 4.12958L14.956 3.95751L14.906 3.98254L14.931 4.08265L14.784 4.10768L14.834 4.12958L14.809 4.20467L14.956 4.10768L14.809 4.22969L14.8559 4.27662L14.981 4.20467V4.25472H15.028L14.956 4.32668L15.103 4.44869L14.981 4.35171L14.931 4.40176L14.8809 4.30165L14.784 4.27662V4.22969L14.7089 4.27662L14.662 4.37673L14.6369 4.32668L14.6119 4.40176L14.5149 4.37673L14.5368 4.40176L14.4399 4.47372L14.4899 4.49875L14.4148 4.52378L14.5149 4.79283L14.5368 4.75216V4.7678L14.5869 4.69584L14.5462 4.73652L14.6119 4.62076L14.6839 4.57383L14.6369 4.62076H14.7089L14.6119 4.69584L14.5869 4.86791H14.6369L14.5368 4.91484L14.5869 4.93987L14.5368 4.9649L14.4899 4.84289L14.4399 5.06501L14.6119 5.03998L14.7089 5.08691L14.7589 5.11194L14.8809 5.08691L14.7589 5.13697L14.7089 5.08691L14.4899 5.11194L14.4399 5.06501L14.3898 5.11194L14.4336 5.1401L14.3179 5.16199L14.3898 5.13697L14.3179 5.11194L14.2428 5.01495L14.0707 4.93987L14.1458 5.01495H14.0957L14.1458 5.08691L14.0457 5.01495V5.03998L13.9237 4.98993H13.9737L13.9487 4.93987H13.9988L13.8987 4.89294V4.93987L13.8267 4.91484L13.8517 4.9649L13.8017 4.91484L13.8517 4.98993L13.8017 5.01495L13.8987 5.03998L13.9237 5.08691L13.8517 5.06501L13.9237 5.11194H13.8736H13.8517H13.7548L13.8768 5.18702H13.7047L13.7548 5.25898L13.7767 5.21205L13.8517 5.23708L13.7516 5.30904L13.9237 5.35909L13.9737 5.50613L14.0707 5.45608V5.40602L14.1208 5.43105L13.9988 5.55619L14.0488 5.60312L13.9737 5.57809L14.0957 5.80021L13.8768 5.57809L13.8017 5.60312L13.9018 5.77519L13.8517 5.75016L13.8017 5.8753V5.99731L13.6547 5.85027L13.5827 5.60312L13.4826 5.53116V5.33406H13.4107L13.3356 5.25898L13.3606 5.16199L13.4326 5.13697L13.3856 5.06501L13.3106 5.08691L13.1635 5.33406L13.2386 5.40602L13.0415 5.38412L13.0165 5.45608L13.0666 5.55619L12.9665 5.50613V5.55619L12.8695 5.57809L12.7944 5.6782L12.8444 5.70323L12.7224 5.80021L12.6974 6.02234L12.7694 6.19441L12.7224 6.36648L12.8945 6.38838V6.48849L12.5504 6.73252L12.4503 6.75754L12.3783 6.85766L12.4284 6.92961L12.3033 6.95464L12.3283 7.05162L12.2063 7.27375L11.9122 7.64292L11.224 7.937L11.052 7.96203H10.8799L10.808 8.01208L10.7079 8.08404L10.6359 8.01208L10.4138 7.96203L10.4388 8.01208V8.03398L10.4138 8.01208L10.3637 7.98705L10.3387 8.01208L10.1698 8.23108L9.65364 8.33119V8.28114L9.45656 8.40315L9.48158 8.4532H9.40651L9.35645 8.55019L9.23445 8.57522V8.55019L9.03737 8.6503L8.89035 8.57522L8.86532 8.50326L8.69639 8.60025L8.62132 8.57522L8.57126 8.55019L8.64634 8.42818H8.59629L8.47429 8.57522L8.49931 8.60025H8.44926L8.20213 8.72226L8.13018 8.6722L8.10516 8.79734L7.90808 8.89433L7.83613 9.04137L7.71413 9.0664L7.589 9.26349L7.12289 9.38551L6.92581 9.50752L6.90078 9.65456L6.85386 9.67959L6.80381 9.65456L6.82883 9.75467L6.75375 9.87668L6.80381 9.92674L6.75375 9.90171L6.77878 9.95177L6.6818 10.0738L6.63175 9.9987L6.50975 10.0738L6.5598 9.90171L6.50975 9.95177L6.48472 9.7797L6.5817 9.48562L6.40965 9.53255L6.16564 10.1238L6.28765 10.4429L6.24072 10.59L6.26262 10.8841L6.01862 11.2282L5.96856 11.6693L6.16564 11.9884L6.14062 12.0385L6.19067 12.2356L6.28765 12.3076L6.5598 12.8488L6.63175 12.8738L6.65678 12.9958H6.5817L6.60673 13.2649L6.48472 13.4119L6.36272 13.218L6.3377 12.9458V13.0709L6.2157 13.1679L6.24072 12.8988L6.04364 12.5797L5.96856 12.7737L6.01862 12.8238V12.7268L6.09057 13.0928L6.3377 13.2899L6.31267 13.512L6.16564 13.584L6.14062 13.4119L6.11559 13.5621L6.06867 13.2649L6.04364 13.4119L5.94354 13.0209L5.96856 13.34L5.89661 13.2899V13.0209L5.87159 13.218L5.77148 13.1429L6.40965 14.0752L6.5598 14.4694L6.50975 14.5914L6.5598 14.8385L6.82883 15.1576L6.90078 15.3047L6.87888 15.4017L7.09786 15.6957L7.19796 16.0399L7.17294 16.4841V16.5311L7.24489 16.9253L7.73602 17.9577L7.76105 18.3237L7.88305 18.2517V18.2987L7.76105 18.3237L7.78607 18.4488L7.73602 18.5208L7.76105 18.6929L7.66407 18.89L7.73602 19.4531L7.46699 19.7722H7.34499L7.19796 19.6752V20.1914L7.29494 20.4605L7.31997 20.4104L7.46699 20.3885L7.73602 20.5356L7.95813 20.8797L8.25218 20.9767L8.27721 20.9016L8.37419 20.9767H8.25218L8.44926 21.0987L8.52434 21.0268L8.67137 21.0987L9.01235 21.0518L9.20943 21.1738L9.25948 21.0737L9.48158 21.1488L9.52851 21.1237L9.40651 21.0737L9.45656 20.9767L9.50661 20.9517L9.48158 21.0518H9.67554L9.65364 20.9767L9.82569 20.9517L9.84759 20.8046L10.0697 20.7076L10.0947 20.6075L10.2167 20.5575L10.1667 20.5105L10.4889 20.6075L10.5108 20.5105L10.6109 20.5356V20.4355L10.7329 20.4605L10.6359 20.3635L10.9769 20.0444H11.052L11.371 20.0913L11.493 19.9943L12.1093 19.9193L12.4284 20.0194L12.6004 19.9443L12.6974 20.1164H12.8194L12.8695 20.0194L13.0415 20.0663L13.0666 19.9943L13.3856 19.9693L13.4576 20.0194L13.4826 20.1164L13.6547 19.9943L13.7767 20.0444L14.1208 19.7003L14.2209 19.3061L14.3179 19.2091L14.7589 19.062L15.6442 18.5458L15.8413 18.4958L16.2073 18.5458L16.6265 18.5208L17.4117 18.2736L17.8715 18.0453V3.93561C17.8707 3.91758 17.8762 3.89983 17.8872 3.88556H17.8027L17.7558 3.8355L17.6557 3.81047L17.5087 3.8355L17.6088 3.91058L17.6338 4.00757L17.5337 3.88556L17.6088 4.00757L17.5837 3.98254L17.5587 4.0326L17.5087 3.98254L17.4836 4.08265L17.4367 3.95751L17.3867 4.0326L17.5087 4.37673H17.4617L17.4367 4.25472L17.3116 4.12958V4.32668L17.2396 4.40176L17.2897 4.30165L17.2396 4.22969L17.2897 4.20467L17.2647 4.05763L17.3366 3.88556H17.2897L17.3867 3.86053L17.3366 3.78544L17.3867 3.76354L17.2146 3.6384L17.1896 3.68846L16.9706 3.34432L16.7986 3.24734L16.7735 3.14722L16.6984 3.12532L16.7235 3.19728L16.6515 3.12532L16.6015 3.17225V3.12532L16.5514 3.17225L16.5014 3.05024L16.3543 3.00018Z" fill="white"/>
<path d="M14.4395 5.14307L14.5149 5.18716L14.4395 5.23756V5.14307Z" fill="white"/>
</svg>
